<?xml version="1.0" standalone="no"?>
<!DOCTYPE svg PUBLIC "-//W3C//DTD SVG 20010904//EN"
 "http://www.w3.org/TR/2001/REC-SVG-20010904/DTD/svg10.dtd">
<svg version="1.0" xmlns="http://www.w3.org/2000/svg"
 width="1920.000000pt" height="1080.000000pt" viewBox="0 0 1920.000000 1080.000000"
 preserveAspectRatio="xMidYMid meet">

<g transform="translate(0.000000,1080.000000) scale(0.100000,-0.100000)"
fill="#000000" stroke="none">
<path d="M0 10554 c0 -183 3 -243 12 -238 7 5 8 3 2 -7 -17 -27 -12 -36 17
-34 24 2 27 0 18 -11 -8 -10 -6 -12 11 -9 18 3 20 2 10 -10 -10 -12 -8 -13 9
-10 15 3 19 0 14 -8 -16 -25 -10 -34 18 -32 24 2 27 0 18 -11 -8 -10 -6 -12
11 -9 18 3 20 2 10 -10 -10 -12 -8 -13 9 -10 15 3 19 0 14 -8 -16 -25 -10 -34
18 -32 24 2 27 0 18 -11 -8 -10 -6 -12 11 -9 18 3 20 2 10 -10 -10 -12 -8 -13
9 -10 15 3 19 0 14 -8 -16 -25 -10 -34 18 -32 24 2 27 0 18 -11 -8 -10 -6 -12
11 -9 18 3 20 2 10 -10 -10 -12 -8 -13 9 -10 15 3 19 0 14 -8 -16 -25 -10 -34
18 -32 24 2 27 0 18 -11 -8 -10 -6 -12 11 -9 18 3 20 2 10 -10 -10 -12 -8 -13
9 -10 15 3 19 0 14 -8 -16 -25 -10 -34 18 -32 24 2 27 0 18 -11 -8 -10 -6 -12
11 -9 18 3 20 2 10 -10 -10 -12 -8 -13 9 -10 15 3 19 0 14 -8 -16 -25 -10 -34
18 -32 24 2 27 0 18 -11 -8 -10 -6 -12 11 -9 18 3 20 2 10 -10 -10 -12 -8 -13
9 -10 15 3 19 0 14 -8 -16 -25 -10 -34 18 -32 24 2 27 0 18 -11 -8 -10 -6 -12
11 -9 18 3 20 2 10 -10 -10 -12 -8 -13 9 -10 15 3 19 0 14 -8 -16 -25 -10 -34
18 -32 24 2 27 0 18 -11 -8 -10 -6 -12 11 -9 18 3 20 2 10 -10 -10 -12 -8 -13
9 -10 15 3 19 0 14 -8 -16 -25 -10 -34 18 -32 24 2 27 0 18 -11 -8 -10 -6 -12
11 -9 18 3 20 2 10 -10 -10 -12 -8 -13 9 -10 15 3 19 0 14 -8 -16 -25 -10 -34
18 -32 24 2 27 0 18 -11 -8 -10 -6 -12 11 -9 18 3 20 2 10 -10 -10 -12 -8 -13
9 -10 15 3 19 0 14 -8 -16 -25 -10 -34 18 -32 24 2 27 0 18 -11 -8 -10 -6 -12
11 -9 18 3 20 2 10 -10 -10 -12 -8 -13 9 -10 15 3 19 0 14 -8 -16 -25 -10 -34
18 -32 24 2 27 0 18 -11 -8 -10 -6 -12 11 -9 18 3 20 2 10 -10 -10 -12 -8 -13
9 -10 15 3 19 0 14 -8 -16 -25 -10 -34 18 -32 24 2 27 0 18 -11 -8 -10 -6 -12
11 -9 18 3 20 2 10 -10 -10 -12 -8 -13 9 -10 15 3 19 0 14 -8 -16 -25 -10 -34
18 -32 24 2 27 0 18 -11 -8 -10 -6 -12 11 -9 18 3 20 2 10 -10 -10 -12 -8 -13
9 -10 15 3 19 0 14 -8 -16 -25 -10 -34 18 -32 24 2 27 0 18 -11 -8 -10 -6 -12
11 -9 18 3 20 2 10 -10 -10 -12 -8 -13 9 -10 15 3 19 0 14 -8 -16 -25 -10 -34
18 -32 24 2 27 0 18 -11 -8 -10 -6 -12 11 -9 18 3 20 2 10 -10 -10 -12 -8 -13
9 -10 15 3 19 0 14 -8 -16 -25 -10 -34 18 -32 24 2 27 0 18 -11 -8 -10 -6 -12
11 -9 18 3 20 2 10 -10 -10 -12 -8 -13 9 -10 15 3 19 0 14 -8 -16 -25 -10 -34
18 -32 24 2 27 0 18 -11 -8 -10 -6 -12 11 -9 18 3 20 2 10 -10 -10 -12 -8 -13
9 -10 15 3 19 0 14 -8 -16 -25 -10 -34 18 -32 24 2 27 0 18 -11 -8 -10 -6 -12
11 -9 18 3 20 2 10 -10 -10 -12 -8 -13 9 -10 15 3 19 0 14 -8 -16 -25 -10 -34
18 -32 24 2 27 0 18 -11 -8 -10 -6 -12 11 -9 18 3 20 2 10 -10 -10 -12 -8 -13
9 -10 15 3 19 0 14 -8 -16 -25 -10 -34 18 -32 24 2 27 0 18 -11 -8 -10 -6 -12
11 -9 18 3 20 2 10 -10 -10 -12 -8 -13 9 -10 15 3 19 0 14 -8 -16 -25 -10 -34
18 -32 24 2 27 0 18 -11 -8 -10 -6 -12 11 -9 18 3 20 2 10 -10 -10 -12 -8 -13
9 -10 15 3 19 0 14 -8 -16 -25 -10 -34 18 -32 24 2 27 0 18 -11 -8 -10 -6 -12
11 -9 18 3 20 2 10 -10 -10 -12 -8 -13 9 -10 15 3 19 0 14 -8 -16 -25 -10 -34
18 -32 24 2 27 0 18 -11 -8 -10 -6 -12 11 -9 18 3 20 2 10 -10 -10 -12 -8 -13
9 -10 15 3 19 0 14 -8 -16 -25 -10 -34 18 -32 24 2 27 0 18 -11 -8 -10 -6 -12
11 -9 18 3 20 2 10 -10 -10 -12 -8 -13 9 -10 15 3 19 0 14 -8 -16 -25 -10 -34
18 -32 24 2 27 0 18 -11 -8 -10 -6 -12 11 -9 18 3 20 2 10 -10 -10 -12 -8 -13
9 -10 15 3 19 0 14 -8 -16 -25 -10 -34 18 -32 24 2 27 0 18 -11 -8 -10 -6 -12
11 -9 18 3 20 2 10 -10 -10 -12 -8 -13 9 -10 15 3 19 0 14 -8 -16 -25 -10 -34
18 -32 24 2 27 0 18 -11 -8 -10 -6 -12 11 -9 18 3 20 2 10 -10 -10 -12 -8 -13
9 -10 15 3 19 0 14 -8 -16 -25 -10 -34 18 -32 24 2 27 0 18 -11 -8 -10 -6 -12
11 -9 18 3 20 2 10 -10 -10 -12 -8 -13 9 -10 15 3 19 0 14 -8 -16 -25 -10 -34
18 -32 24 2 27 0 18 -11 -8 -10 -6 -12 11 -9 18 3 20 2 10 -10 -10 -12 -8 -13
9 -10 15 3 19 0 14 -8 -16 -25 -10 -34 18 -32 24 2 27 0 18 -11 -8 -10 -6 -12
11 -9 18 3 20 2 10 -10 -10 -12 -8 -13 9 -10 15 3 19 0 14 -8 -16 -25 -10 -34
18 -32 24 2 27 0 18 -11 -8 -10 -6 -12 11 -9 18 3 20 2 10 -10 -10 -12 -8 -13
9 -10 15 3 19 0 14 -8 -16 -25 -10 -34 18 -32 24 2 27 0 18 -11 -8 -10 -6 -12
11 -9 18 3 20 2 10 -10 -10 -12 -8 -13 9 -10 15 3 19 0 14 -8 -16 -25 -10 -34
18 -32 24 2 27 0 18 -11 -8 -10 -6 -12 11 -9 18 3 20 2 10 -10 -10 -12 -8 -13
9 -10 15 3 19 0 14 -8 -16 -25 -10 -34 18 -32 24 2 27 0 18 -11 -8 -10 -6 -12
11 -9 18 3 20 2 10 -10 -10 -12 -8 -13 9 -10 15 3 19 0 14 -8 -16 -25 -10 -34
18 -32 24 2 27 0 18 -11 -8 -10 -6 -12 11 -9 18 3 20 2 10 -10 -10 -12 -8 -13
9 -10 15 3 19 0 14 -8 -16 -25 -10 -34 18 -32 24 2 27 0 18 -11 -8 -10 -6 -12
11 -9 18 3 20 2 10 -10 -10 -12 -8 -13 9 -10 15 3 19 0 14 -8 -16 -25 -10 -34
18 -32 24 2 27 0 18 -11 -8 -10 -6 -12 11 -9 18 3 20 2 10 -10 -10 -12 -8 -13
9 -10 15 3 19 0 14 -8 -16 -25 -10 -34 18 -32 24 2 27 0 18 -11 -8 -10 -6 -12
11 -9 18 3 20 2 10 -10 -10 -12 -8 -13 9 -10 15 3 19 0 14 -8 -16 -25 -10 -34
18 -32 24 2 27 0 18 -11 -8 -10 -6 -12 11 -9 18 3 20 2 10 -10 -10 -12 -8 -13
9 -10 15 3 19 0 14 -8 -16 -25 -10 -34 18 -32 24 2 27 0 18 -11 -8 -10 -6 -12
11 -9 18 3 20 2 10 -10 -10 -12 -8 -13 9 -10 15 3 19 0 14 -8 -16 -25 -10 -34
18 -32 24 2 27 0 18 -11 -8 -10 -6 -12 11 -9 18 3 20 2 10 -10 -10 -12 -8 -13
9 -10 15 3 19 0 14 -8 -16 -25 -10 -34 18 -32 24 2 27 0 18 -11 -8 -10 -6 -12
11 -9 18 3 20 2 10 -10 -10 -12 -8 -13 9 -10 15 3 19 0 14 -8 -16 -25 -10 -34
18 -32 24 2 27 0 18 -11 -8 -10 -6 -12 11 -9 18 3 20 2 10 -10 -10 -12 -8 -13
9 -10 15 3 19 0 14 -8 -16 -25 -10 -34 18 -32 24 2 27 0 18 -11 -8 -10 -6 -12
11 -9 18 3 20 2 10 -10 -10 -12 -8 -13 9 -10 15 3 19 0 14 -8 -16 -25 -10 -34
18 -32 24 2 27 0 18 -11 -8 -10 -6 -12 11 -9 18 3 20 2 10 -10 -10 -12 -8 -13
9 -10 15 3 19 0 14 -8 -16 -25 -10 -34 18 -32 24 2 27 0 18 -11 -8 -10 -6 -12
11 -9 18 3 20 2 10 -10 -10 -12 -8 -13 9 -10 15 3 19 0 14 -8 -16 -25 -10 -34
18 -32 24 2 27 0 18 -11 -8 -10 -6 -12 11 -9 18 3 20 2 10 -10 -10 -12 -8 -13
9 -10 15 3 19 0 14 -8 -16 -25 -10 -34 18 -32 24 2 27 0 18 -11 -8 -10 -6 -12
11 -9 18 3 20 2 10 -10 -10 -12 -8 -13 9 -10 15 3 19 0 14 -8 -16 -25 -10 -34
18 -32 24 2 27 0 18 -11 -8 -10 -6 -12 11 -9 18 3 20 2 10 -10 -10 -12 -8 -13
9 -10 15 3 19 0 14 -8 -16 -25 -10 -34 18 -32 24 2 27 0 18 -11 -8 -10 -6 -12
11 -9 18 3 20 2 10 -10 -10 -12 -8 -13 9 -10 15 3 19 0 14 -8 -16 -25 -10 -34
18 -32 24 2 27 0 18 -11 -8 -10 -6 -12 11 -9 18 3 20 2 10 -10 -10 -12 -8 -13
9 -10 15 3 19 0 14 -8 -16 -25 -10 -34 18 -32 24 2 27 0 18 -11 -8 -10 -6 -12
11 -9 18 3 20 2 10 -10 -10 -12 -8 -13 9 -10 15 3 19 0 14 -8 -16 -25 -10 -34
18 -32 24 2 27 0 18 -11 -8 -10 -6 -12 11 -9 18 3 20 2 10 -10 -10 -12 -8 -13
9 -10 15 3 19 0 14 -8 -16 -25 -10 -34 18 -32 24 2 27 0 18 -11 -8 -10 -6 -12
11 -9 18 3 20 2 10 -10 -10 -12 -8 -13 9 -10 15 3 19 0 14 -8 -16 -25 -10 -34
18 -32 24 2 27 0 18 -11 -8 -10 -6 -12 11 -9 18 3 20 2 10 -10 -10 -12 -8 -13
9 -10 15 3 19 0 14 -8 -16 -25 -10 -34 18 -32 22 2 27 -1 20 -9 -14 -17 506
-535 532 -531 14 3 16 1 7 -10 -10 -12 -8 -13 10 -10 18 3 20 2 10 -10 -10
-12 -8 -13 9 -10 15 3 19 0 14 -8 -16 -25 -10 -34 18 -32 24 2 27 0 18 -11 -8
-10 -6 -12 11 -9 18 3 20 2 10 -10 -10 -12 -8 -13 9 -10 15 3 19 0 14 -8 -16
-25 -10 -34 18 -32 24 2 27 0 18 -11 -8 -10 -6 -12 11 -9 18 3 20 2 10 -10
-10 -12 -8 -13 9 -10 15 3 19 0 14 -8 -16 -25 -10 -34 18 -32 24 2 27 0 18
-11 -8 -10 -6 -12 11 -9 18 3 20 2 10 -10 -10 -12 -8 -13 9 -10 15 3 19 0 14
-8 -16 -25 -10 -34 18 -32 24 2 27 0 18 -11 -8 -10 -6 -12 11 -9 18 3 20 2 10
-10 -10 -12 -8 -13 9 -10 15 3 19 0 14 -8 -16 -25 -10 -34 18 -32 24 2 27 0
18 -11 -8 -10 -6 -12 11 -9 18 3 20 2 10 -10 -10 -12 -8 -13 9 -10 15 3 19 0
14 -8 -16 -25 -10 -34 18 -32 24 2 27 0 18 -11 -8 -10 -6 -12 11 -9 18 3 20 2
10 -10 -10 -12 -8 -13 9 -10 15 3 19 0 14 -8 -16 -25 -10 -34 18 -32 24 2 27
0 18 -11 -8 -10 -6 -12 11 -9 18 3 20 2 10 -10 -10 -12 -8 -13 9 -10 15 3 19
0 14 -8 -16 -25 -10 -34 18 -32 24 2 27 0 18 -11 -8 -10 -6 -12 11 -9 18 3 20
2 10 -10 -10 -12 -8 -13 9 -10 15 3 19 0 14 -8 -16 -25 -10 -34 18 -32 24 2
27 0 18 -11 -8 -10 -6 -12 11 -9 18 3 20 2 10 -10 -10 -12 -8 -13 9 -10 15 3
19 0 14 -8 -16 -25 -10 -34 18 -32 24 2 27 0 18 -11 -8 -10 -6 -12 11 -9 18 3
20 2 10 -10 -10 -12 -8 -13 9 -10 15 3 19 0 14 -8 -16 -25 -10 -34 18 -32 24
2 27 0 18 -11 -8 -10 -6 -12 11 -9 18 3 20 2 10 -10 -10 -12 -8 -13 9 -10 15
3 19 0 14 -8 -16 -26 -9 -33 36 -32 25 0 55 -2 66 -6 25 -8 203 -17 485 -25
222 -6 282 -13 385 -45 63 -20 153 -88 142 -106 -4 -6 -86 -13 -204 -17 -432
-14 -447 -15 -460 -42 -6 -13 -7 -26 -3 -29 5 -3 131 -1 282 5 150 5 334 9
408 9 210 0 750 11 797 17 34 4 42 9 48 32 15 62 48 122 69 127 37 9 577 12
683 4 56 -4 114 -14 130 -23 15 -8 53 -40 83 -70 l54 -56 72 0 c103 0 124 12
89 51 -15 15 -13 22 20 81 60 111 31 103 391 105 172 0 318 4 324 8 6 4 21 -2
33 -13 16 -15 50 -25 132 -36 230 -33 318 -61 351 -112 18 -27 98 -479 89
-502 -3 -9 -22 -12 -62 -10 l-57 3 -26 70 c-62 168 -139 272 -217 295 -92 26
-246 40 -450 40 -116 0 -214 4 -217 9 -8 13 -87 23 -100 13 -6 -5 -47 -10 -90
-11 -44 -1 -84 -6 -90 -11 -7 -5 -261 -13 -566 -19 -790 -15 -1014 -20 -1460
-31 -217 -5 -618 -14 -890 -20 -272 -5 -576 -12 -675 -15 -150 -5 -1039 -24
-1170 -26 -22 0 -139 -4 -260 -9 -121 -5 -400 -12 -620 -15 -534 -7 -577 -10
-610 -41 -14 -13 -30 -24 -36 -24 -5 0 -12 -7 -15 -15 -4 -8 -12 -15 -18 -15
-27 0 -35 -81 -41 -385 -6 -345 -23 -787 -31 -794 -2 -2 -5 252 -6 565 0 313
-1 584 -1 602 -1 45 -15 40 -39 -14 -19 -45 -20 -64 -19 -585 0 -336 -3 -540
-9 -544 -6 -4 -10 21 -10 64 0 38 -4 73 -10 76 -6 3 -10 -5 -10 -19 0 -14 -5
-28 -10 -31 -17 -10 -23 23 -12 66 7 28 7 43 -1 52 -12 12 -13 131 -7 642 3
230 -4 330 -22 319 -5 -3 -6 5 -2 20 5 22 3 26 -15 26 -15 0 -23 -10 -31 -41
l-12 -42 -19 32 c-21 36 -26 37 -57 15 -21 -14 -22 -14 -22 8 0 13 -4 28 -8
33 -5 8 -167 8 -527 2 -286 -5 -521 -10 -522 -10 -4 -5 -5 -258 -4 -1343 l1
-1191 63 -6 c34 -3 114 -13 177 -22 63 -9 144 -16 180 -16 76 1 100 -5 100
-24 0 -18 -29 -23 -61 -11 -36 13 -59 2 -59 -29 0 -33 17 -39 86 -30 50 6 57
10 66 37 10 29 12 30 54 23 86 -12 190 -26 284 -36 52 -6 98 -13 101 -17 4 -4
8 -61 10 -127 l4 -120 -130 -6 c-71 -4 -298 -7 -502 -8 l-373 -1 0 -114 0
-113 223 3 c141 2 232 -1 250 -8 20 -8 31 -7 41 1 19 16 238 12 335 -5 49 -9
79 -10 91 -4 24 13 56 13 81 0 18 -10 18 -13 4 -40 -8 -16 -15 -34 -15 -39 0
-16 55 -41 89 -41 30 0 44 19 45 65 1 18 7 20 51 17 28 -2 124 -5 215 -8 146
-4 166 -7 183 -24 11 -13 31 -20 53 -20 57 0 173 -21 202 -36 15 -8 42 -14 59
-14 25 0 36 -6 47 -27 19 -36 82 -96 126 -119 31 -17 59 -19 275 -18 323 1
450 14 535 57 55 27 70 40 94 84 l29 51 91 -4 c50 -3 154 -9 231 -15 77 -5
212 -10 300 -10 201 -1 232 -5 240 -30 4 -13 16 -19 34 -19 15 0 42 -11 61
-25 63 -47 88 -50 370 -49 262 0 266 1 345 28 46 16 103 45 134 68 l55 41 300
-17 c799 -46 850 -50 884 -77 19 -14 34 -17 70 -12 26 3 51 10 57 14 5 5 17 9
27 9 15 0 18 -8 18 -48 0 -39 5 -53 25 -72 25 -23 27 -24 108 -12 46 7 117 12
158 12 l74 0 29 -86 c36 -104 77 -171 113 -185 39 -15 310 -7 344 10 37 18 86
122 94 198 l7 61 77 6 c42 4 104 9 138 13 58 5 62 4 78 -21 20 -31 65 -36 65
-8 0 14 2 15 10 2 6 -11 35 -17 97 -21 48 -4 120 -14 158 -22 50 -11 136 -16
305 -16 196 -1 375 -6 487 -14 12 0 21 -6 20 -11 -1 -6 4 -10 11 -8 8 1 11 -2
7 -8 -5 -8 -14 -5 -28 6 -12 10 9 -14 47 -53 48 -50 75 -70 88 -68 16 3 18 2
8 -10 -10 -12 -8 -13 10 -10 18 3 20 2 10 -10 -10 -12 -8 -13 10 -10 17 3 19
1 11 -9 -15 -18 -1 -29 17 -13 13 9 14 9 8 0 -6 -10 885 -13 4439 -13 l4445 0
0 2305 c0 1561 -4 2306 -11 2310 -6 4 -6 12 -1 18 7 10 8 37 3 63 0 4 -7 1
-15 -5 -11 -9 -16 -9 -22 0 -4 7 -3 9 3 6 6 -4 16 0 22 7 14 16 -3 17 -29 1
-10 -5 -9 -1 3 13 19 20 7 26 -20 9 -6 -4 -15 -2 -19 4 -4 7 -3 9 3 6 6 -4 16
0 23 8 7 8 17 12 24 8 6 -4 5 1 -3 10 -15 19 -22 22 -18 8 1 -5 -1 -8 -4 -8
-3 1 -13 -4 -22 -11 -12 -10 -17 -10 -23 -1 -4 7 -3 9 3 6 6 -4 16 0 22 7 9
11 9 14 -1 12 -7 -1 -18 -5 -25 -9 -6 -4 -15 -2 -19 4 -4 7 -3 9 3 6 6 -4 16
0 22 7 14 16 -3 17 -29 1 -10 -5 -9 -1 3 13 19 20 7 26 -20 9 -6 -4 -15 -2
-19 4 -4 7 -3 9 3 6 6 -4 16 0 23 8 7 8 17 12 24 8 6 -4 5 1 -3 10 -15 19 -22
22 -18 8 1 -5 -1 -8 -4 -8 -3 1 -13 -4 -22 -11 -12 -10 -17 -10 -23 -1 -4 7
-3 9 3 6 6 -4 16 0 22 7 9 11 9 14 -1 12 -7 -1 -18 -5 -25 -9 -6 -4 -15 -2
-19 4 -4 7 -3 9 3 6 6 -4 16 0 22 7 14 16 -3 17 -29 1 -10 -5 -9 -1 3 13 19
20 7 26 -20 9 -6 -4 -15 -2 -19 4 -4 7 -3 9 3 6 6 -4 16 0 23 8 7 8 17 12 24
8 6 -4 5 1 -3 10 -15 19 -22 22 -18 8 1 -5 -2 -10 -8 -11 -5 -1 -15 -6 -22
-11 -7 -7 -14 -6 -19 2 -4 7 -3 9 3 6 6 -4 16 0 22 7 9 11 9 14 -1 12 -7 -1
-18 -5 -25 -9 -6 -4 -15 -2 -19 4 -4 7 -3 9 3 6 6 -4 16 0 22 7 14 16 -3 17
-29 1 -10 -5 -9 -1 3 13 19 20 7 26 -20 9 -6 -4 -15 -2 -19 4 -4 7 -3 9 3 6 6
-4 16 0 23 8 7 8 17 12 24 8 6 -4 5 1 -3 10 -15 19 -22 22 -18 8 1 -5 -2 -10
-8 -11 -5 -1 -15 -6 -22 -11 -7 -7 -14 -6 -19 2 -4 7 -3 9 3 6 6 -4 16 0 22 7
9 11 9 14 -1 12 -7 -1 -18 -5 -25 -9 -6 -4 -15 -2 -19 4 -4 7 -3 9 3 6 6 -4
16 0 22 7 14 16 -3 17 -29 1 -10 -5 -9 -1 3 13 19 20 7 26 -20 9 -6 -4 -15 -2
-19 4 -4 7 -3 9 3 6 6 -4 16 0 23 8 7 8 17 12 24 8 6 -4 5 1 -3 10 -15 19 -22
22 -18 8 1 -5 -1 -8 -4 -8 -3 1 -13 -4 -22 -11 -12 -10 -17 -10 -23 -1 -4 7
-3 9 3 6 6 -4 16 0 22 7 9 11 9 14 -1 12 -7 -1 -18 -5 -25 -9 -6 -4 -15 -2
-19 4 -4 7 -3 9 3 6 6 -4 16 0 22 7 14 16 -3 17 -29 1 -10 -5 -9 -1 3 13 19
20 7 26 -20 9 -6 -4 -15 -2 -19 4 -4 7 -3 9 3 6 6 -4 16 0 23 8 7 8 17 12 24
8 6 -4 5 1 -3 10 -15 19 -22 22 -18 8 1 -5 -2 -10 -8 -11 -5 -1 -15 -6 -22
-11 -7 -7 -14 -6 -19 2 -4 7 -3 9 3 6 6 -4 16 0 22 7 9 11 9 14 -1 12 -7 -1
-18 -5 -25 -9 -6 -4 -15 -2 -19 4 -4 7 -3 9 3 6 6 -4 16 0 22 7 14 16 -3 17
-29 1 -10 -5 -9 -1 3 13 19 20 7 26 -20 9 -6 -4 -15 -2 -19 4 -4 7 -3 9 3 6 6
-4 16 0 23 8 7 8 17 12 24 8 6 -4 5 1 -3 10 -16 20 -22 22 -18 5 1 -7 -2 -12
-8 -13 -5 0 -15 -4 -22 -8 -6 -4 -15 -2 -19 4 -4 7 -3 9 3 6 6 -4 16 0 22 7 9
11 9 14 -1 12 -7 -1 -18 -5 -25 -9 -6 -4 -15 -2 -19 4 -4 7 -3 9 3 6 6 -4 16
0 22 7 14 16 -3 17 -29 1 -10 -5 -9 -1 3 13 19 20 7 26 -20 9 -6 -4 -15 -2
-19 4 -4 7 -3 9 3 6 6 -4 16 0 23 8 7 8 17 12 24 8 6 -4 5 1 -3 10 -16 20 -22
22 -18 5 1 -7 -2 -12 -8 -13 -5 0 -15 -4 -22 -8 -6 -4 -15 -2 -19 4 -4 7 -3 9
3 6 6 -4 16 0 22 7 9 11 9 14 -1 12 -7 -1 -18 -5 -25 -9 -6 -4 -15 -2 -19 4
-4 7 -3 9 3 6 6 -4 16 0 22 7 14 16 -3 17 -29 1 -10 -5 -9 -1 3 13 19 20 7 26
-20 9 -6 -4 -15 -2 -19 4 -4 7 -3 9 3 6 6 -4 16 0 23 8 7 8 17 12 24 8 6 -4 5
1 -3 10 -16 20 -22 22 -18 5 1 -7 -2 -12 -8 -13 -5 0 -15 -4 -22 -8 -6 -4 -15
-2 -19 4 -4 7 -3 9 3 6 6 -4 16 0 22 7 9 11 9 14 -1 12 -7 -1 -18 -5 -25 -9
-6 -4 -15 -2 -19 4 -4 7 -3 9 3 6 6 -4 16 0 22 7 14 16 -3 17 -29 1 -10 -5 -9
-1 3 13 19 20 7 26 -20 9 -6 -4 -15 -2 -19 4 -4 7 -3 9 3 6 6 -4 16 0 23 8 7
8 17 12 24 8 6 -4 5 1 -3 10 -16 20 -22 22 -18 5 1 -7 -2 -12 -8 -13 -5 0 -15
-4 -22 -8 -6 -4 -15 -2 -19 4 -4 7 -3 9 3 6 6 -4 16 0 22 7 9 11 9 14 -1 12
-7 -1 -18 -5 -25 -9 -6 -4 -15 -2 -19 4 -4 7 -3 9 3 6 6 -4 16 0 22 7 14 16
-3 17 -29 1 -10 -5 -9 -1 3 13 19 20 7 26 -20 9 -6 -4 -15 -2 -19 4 -4 7 -3 9
3 6 6 -4 16 0 23 8 7 8 17 12 24 8 6 -4 5 1 -3 10 -16 20 -22 22 -18 5 1 -7
-2 -12 -8 -13 -5 0 -15 -4 -22 -8 -6 -4 -15 -2 -19 4 -4 7 -3 9 3 6 6 -4 16 0
22 7 9 11 9 14 -1 12 -7 -1 -18 -5 -25 -9 -6 -4 -15 -2 -19 4 -4 7 -3 9 3 6 6
-4 16 0 22 7 14 16 -3 17 -29 1 -10 -5 -9 -1 3 13 19 20 7 26 -20 9 -6 -4 -15
-2 -19 4 -4 7 -3 9 3 6 6 -4 16 0 23 8 7 8 17 12 24 8 6 -4 5 1 -3 10 -16 20
-22 22 -18 5 1 -7 -2 -12 -8 -13 -5 0 -15 -4 -22 -8 -6 -4 -15 -2 -19 4 -4 7
-3 9 3 6 6 -4 16 0 22 7 9 11 9 14 -1 12 -7 -1 -18 -5 -25 -9 -6 -4 -15 -2
-19 4 -4 7 -3 9 3 6 6 -4 16 0 22 7 14 17 -3 17 -29 1 -13 -8 -13 -7 0 9 18
23 22 46 7 43 -7 -1 -11 4 -10 10 2 7 -3 12 -10 10 -6 -1 -11 4 -10 10 2 7 -3
12 -10 10 -6 -1 -11 4 -10 10 2 7 -3 12 -10 10 -6 -1 -11 4 -10 10 2 7 -3 12
-10 10 -6 -1 -11 4 -10 10 2 7 -3 12 -10 10 -6 -1 -11 4 -10 10 2 7 -3 12 -10
10 -6 -1 -11 4 -10 10 2 7 -3 12 -10 10 -6 -1 -11 4 -10 10 2 7 -3 12 -10 10
-6 -1 -11 4 -10 10 2 7 -3 12 -10 10 -6 -1 -11 4 -10 10 2 7 -3 12 -10 10 -6
-1 -11 4 -10 10 2 7 -3 12 -10 10 -6 -1 -11 4 -10 10 2 7 -3 12 -10 10 -6 -1
-11 4 -10 10 2 7 -3 12 -10 10 -6 -1 -11 4 -10 10 2 7 -3 12 -10 10 -6 -1 -11
4 -10 10 2 7 -3 12 -10 10 -6 -1 -11 4 -10 10 2 7 -3 12 -10 10 -6 -1 -11 4
-10 10 2 7 -3 12 -10 10 -6 -1 -11 4 -10 10 2 7 -3 12 -10 10 -6 -1 -11 4 -10
10 2 7 -3 12 -10 10 -6 -1 -11 4 -10 10 2 7 -3 12 -10 10 -6 -1 -11 4 -10 10
2 7 -3 12 -10 10 -6 -1 -11 4 -10 10 2 7 -3 12 -10 10 -6 -1 -11 4 -10 10 2 7
-3 12 -10 10 -6 -1 -11 4 -10 10 2 7 -3 12 -10 10 -6 -1 -11 4 -10 10 2 7 -3
12 -10 10 -6 -1 -11 4 -10 10 2 7 -3 12 -10 10 -6 -1 -11 4 -10 10 2 7 -3 12
-10 10 -6 -1 -11 4 -10 10 2 7 -3 12 -10 10 -6 -1 -11 4 -10 10 2 7 -3 12 -10
10 -6 -1 -11 4 -10 10 2 7 -3 12 -10 10 -6 -1 -11 4 -10 10 2 7 -3 12 -10 10
-6 -1 -11 4 -10 10 2 7 -3 12 -10 10 -6 -1 -11 4 -10 10 2 7 -3 12 -10 10 -6
-1 -11 4 -10 10 2 7 -3 12 -10 10 -6 -1 -11 4 -10 10 2 7 -3 12 -10 10 -6 -1
-11 4 -10 10 2 7 -3 12 -10 10 -6 -1 -11 4 -10 10 2 7 -3 12 -10 10 -6 -1 -11
4 -10 10 2 7 -3 12 -10 10 -6 -1 -11 4 -10 10 2 7 -3 12 -10 10 -6 -1 -11 4
-10 10 2 7 -3 12 -10 10 -6 -1 -11 4 -10 10 2 7 -3 12 -10 10 -6 -1 -11 4 -10
10 2 7 -3 12 -10 10 -6 -1 -11 4 -10 10 2 7 -3 12 -10 10 -6 -1 -11 4 -10 10
2 7 -3 12 -10 10 -6 -1 -11 4 -10 10 2 7 -3 12 -10 10 -6 -1 -11 4 -10 10 2 7
-3 12 -10 10 -6 -1 -11 4 -10 10 2 7 -3 12 -10 10 -6 -1 -11 4 -10 10 2 7 -3
12 -10 10 -6 -1 -11 4 -10 10 2 7 -3 12 -10 10 -6 -1 -11 4 -10 10 2 7 -3 12
-10 10 -6 -1 -11 4 -10 10 2 7 -3 12 -10 10 -6 -1 -11 4 -10 10 2 7 -3 12 -10
10 -6 -1 -11 4 -10 10 2 7 -3 12 -10 10 -6 -1 -11 4 -10 10 2 7 -3 12 -10 10
-6 -1 -11 4 -10 10 2 7 -3 12 -10 10 -6 -1 -11 4 -10 10 2 7 -3 12 -10 10 -6
-1 -11 4 -10 10 2 7 -3 12 -10 10 -6 -1 -11 4 -10 10 2 7 -3 12 -10 10 -6 -1
-11 4 -10 10 2 7 -3 12 -10 10 -6 -1 -11 4 -10 10 2 7 -3 12 -10 10 -6 -1 -11
4 -10 10 2 7 -3 12 -10 10 -6 -1 -11 4 -10 10 2 7 -3 12 -10 10 -6 -1 -11 4
-10 10 2 7 -3 12 -10 10 -6 -1 -11 4 -10 10 2 7 -3 12 -10 10 -6 -1 -11 4 -10
10 2 7 -3 12 -10 10 -6 -1 -11 4 -10 10 2 7 -3 12 -10 10 -6 -1 -11 4 -10 10
2 7 -3 12 -10 10 -6 -1 -11 4 -10 10 2 7 -3 12 -10 10 -6 -1 -11 4 -10 10 2 7
-3 12 -10 10 -6 -1 -11 4 -10 10 2 7 -3 12 -10 10 -6 -1 -11 4 -10 10 2 7 -3
12 -10 10 -6 -1 -11 4 -10 10 2 7 -3 12 -10 10 -6 -1 -11 4 -10 10 2 7 -3 12
-10 10 -6 -1 -11 4 -10 10 2 7 -3 12 -10 10 -6 -1 -11 4 -10 10 2 7 -3 12 -10
10 -6 -1 -11 4 -10 10 2 7 -3 12 -10 10 -6 -1 -11 4 -10 10 2 7 -3 12 -10 10
-6 -1 -11 4 -10 10 2 7 -3 12 -10 10 -6 -1 -11 4 -10 10 2 7 -3 12 -10 10 -6
-1 -11 4 -10 10 2 7 -3 12 -10 10 -6 -1 -11 4 -10 10 2 7 -3 12 -10 10 -6 -1
-11 4 -10 10 2 7 -3 12 -10 10 -6 -1 -11 4 -10 10 2 7 -3 12 -10 10 -6 -1 -11
4 -10 10 2 7 -3 12 -10 10 -6 -1 -11 4 -10 10 2 7 -3 12 -10 10 -6 -1 -11 4
-10 10 2 7 -3 12 -10 10 -6 -1 -11 4 -10 10 2 7 -3 12 -10 10 -6 -1 -11 4 -10
10 2 7 -3 12 -10 10 -6 -1 -11 4 -10 10 2 7 -3 12 -10 10 -6 -1 -11 4 -10 10
2 7 -3 12 -10 10 -6 -1 -11 4 -10 10 2 7 -3 12 -10 10 -6 -1 -11 4 -10 10 2 7
-3 12 -10 10 -6 -1 -11 4 -10 10 2 7 -3 12 -10 10 -6 -1 -11 4 -10 10 2 7 -3
12 -10 10 -6 -1 -11 4 -10 10 2 7 -3 12 -10 10 -6 -1 -11 4 -10 10 2 7 -3 12
-10 10 -6 -1 -11 4 -10 10 2 7 -3 12 -10 10 -6 -1 -11 4 -10 10 2 7 -3 12 -10
10 -6 -1 -11 4 -10 10 2 7 -3 12 -10 10 -6 -1 -11 4 -10 10 2 7 -3 12 -10 10
-6 -1 -11 4 -10 10 2 7 -3 12 -10 10 -6 -1 -11 4 -10 10 2 7 -3 12 -10 10 -6
-1 -11 4 -10 10 2 7 -3 12 -10 10 -6 -1 -11 4 -10 10 2 7 -3 12 -10 10 -6 -1
-11 4 -10 10 2 7 -3 12 -10 10 -6 -1 -11 4 -10 10 2 7 -3 12 -10 10 -6 -1 -11
4 -10 10 2 7 -3 12 -10 10 -6 -1 -11 4 -10 10 2 7 -3 12 -10 10 -6 -1 -11 4
-10 10 2 7 -3 12 -10 10 -6 -1 -11 4 -10 10 2 7 -3 12 -10 10 -6 -1 -11 4 -10
10 2 7 -3 12 -10 10 -6 -1 -11 4 -10 10 2 7 -3 12 -10 10 -6 -1 -11 4 -10 10
2 7 -3 12 -10 10 -6 -1 -11 4 -10 10 2 7 -3 12 -10 10 -6 -1 -11 4 -10 10 2 7
-3 12 -10 10 -6 -1 -11 4 -10 10 2 7 -3 12 -10 10 -6 -1 -11 4 -10 10 2 7 -3
12 -10 10 -6 -1 -11 4 -10 10 2 7 -3 12 -10 10 -6 -1 -11 4 -10 10 2 7 -3 12
-10 10 -6 -1 -11 4 -10 10 2 7 -3 12 -10 10 -6 -1 -11 4 -10 10 2 7 -3 12 -10
10 -6 -1 -11 4 -10 10 2 7 -3 12 -10 10 -6 -1 -11 4 -10 10 2 7 -3 12 -10 10
-6 -1 -11 4 -10 10 2 7 -3 12 -10 10 -6 -1 -11 4 -10 10 2 7 -3 12 -10 10 -6
-1 -11 4 -10 10 2 7 -3 12 -10 10 -6 -1 -11 4 -10 10 2 7 -3 12 -10 10 -6 -1
-11 4 -10 10 2 7 -3 12 -10 10 -6 -1 -11 4 -10 10 2 7 -3 12 -10 10 -6 -1 -11
4 -10 10 2 7 -3 12 -10 10 -6 -1 -11 4 -10 10 2 7 -3 12 -10 10 -6 -1 -11 4
-10 10 2 7 -3 12 -10 10 -6 -1 -11 4 -10 10 2 7 -3 12 -10 10 -6 -1 -11 4 -10
10 2 7 -3 12 -10 10 -6 -1 -11 4 -10 10 2 7 -3 12 -10 10 -6 -1 -11 4 -10 10
2 7 -3 12 -10 10 -6 -1 -11 4 -10 10 2 7 -3 12 -10 10 -6 -1 -11 4 -10 10 2 7
-3 12 -10 10 -6 -1 -11 4 -10 10 2 7 -3 12 -10 10 -6 -1 -11 4 -10 10 2 7 -3
12 -10 10 -6 -1 -11 4 -10 10 2 7 -3 12 -10 10 -6 -1 -11 4 -10 10 2 7 -3 12
-10 10 -6 -1 -11 4 -10 10 2 7 -3 12 -10 10 -6 -1 -11 3 -10 9 2 12 -35 13
-54 1 -6 -4 -15 -2 -19 4 -4 7 -3 9 3 6 6 -4 16 0 22 7 14 16 -3 17 -29 1 -10
-5 -9 -1 3 13 19 20 7 26 -20 9 -6 -4 -15 -2 -19 4 -4 7 -3 9 3 6 6 -4 16 0
23 8 7 8 17 12 24 8 6 -4 5 1 -3 10 -14 18 -23 22 -18 10 1 -5 -3 -10 -8 -11
-6 -2 -15 -8 -22 -13 -7 -7 -14 -6 -19 2 -4 7 -3 9 3 6 6 -4 16 0 22 7 9 11 9
14 -1 12 -7 -1 -18 -5 -25 -9 -6 -4 -15 -2 -19 4 -4 7 -3 9 3 6 6 -4 16 0 22
7 14 16 -3 17 -29 1 -10 -5 -9 -1 3 13 19 20 7 26 -20 9 -6 -4 -15 -2 -19 4
-4 7 -3 9 3 6 6 -4 16 0 23 8 7 8 17 12 24 8 6 -4 5 1 -3 10 -14 18 -23 22
-18 10 1 -5 -1 -8 -4 -8 -3 0 -13 -6 -22 -13 -12 -10 -17 -10 -23 -1 -4 7 -3
9 3 6 6 -4 16 0 22 7 9 11 9 14 -1 12 -7 -1 -18 -5 -25 -9 -6 -4 -15 -2 -19 4
-4 7 -3 9 3 6 6 -4 16 0 22 7 14 16 -3 17 -29 1 -10 -5 -9 -1 3 13 19 20 7 26
-20 9 -6 -4 -15 -2 -19 4 -4 7 -3 9 3 6 6 -4 16 0 23 8 7 8 17 12 24 8 6 -4 5
1 -3 10 -14 18 -23 22 -18 10 1 -5 -1 -8 -4 -8 -3 0 -13 -6 -22 -13 -12 -10
-17 -10 -23 -1 -4 7 -3 9 3 6 6 -4 16 0 22 7 9 11 9 14 -1 12 -7 -1 -18 -5
-25 -9 -6 -4 -15 -2 -19 4 -4 7 -3 9 3 6 6 -4 16 0 22 7 14 16 -3 17 -29 1
-10 -5 -9 -1 3 13 19 20 7 26 -20 9 -6 -4 -15 -2 -19 4 -4 7 -3 9 3 6 6 -4 16
0 23 8 7 8 17 12 24 8 6 -4 5 1 -3 10 -14 18 -23 22 -18 10 1 -5 -1 -8 -4 -8
-3 0 -13 -6 -22 -13 -12 -10 -17 -10 -23 -1 -4 7 -3 9 3 6 6 -4 16 0 22 7 9
11 9 14 -1 12 -7 -1 -18 -5 -25 -9 -6 -4 -15 -2 -19 4 -4 7 -3 9 3 6 6 -4 16
0 22 7 14 16 -3 17 -29 1 -10 -5 -9 -1 3 13 19 20 7 26 -20 9 -6 -4 -15 -2
-19 4 -4 7 -3 9 3 6 6 -4 16 0 23 8 7 8 17 12 24 8 6 -4 5 1 -3 10 -14 18 -23
22 -18 10 1 -5 -1 -8 -4 -8 -3 0 -13 -6 -22 -13 -12 -10 -17 -10 -23 -1 -4 7
-3 9 3 6 6 -4 16 0 22 7 9 11 9 14 -1 12 -7 -1 -18 -5 -25 -9 -6 -4 -15 -2
-19 4 -4 7 -3 9 3 6 6 -4 16 0 22 7 14 16 -3 17 -29 1 -10 -5 -9 -1 3 13 19
20 7 26 -20 9 -6 -4 -15 -2 -19 4 -4 7 -3 9 3 6 6 -4 16 0 23 8 7 8 17 12 24
8 6 -4 5 1 -3 10 -14 18 -23 22 -18 10 1 -5 -1 -8 -4 -8 -3 0 -13 -6 -22 -13
-12 -10 -17 -10 -23 -1 -4 7 -3 9 3 6 6 -4 16 0 22 7 9 11 9 14 -1 12 -7 -1
-18 -5 -25 -9 -6 -4 -15 -2 -19 4 -4 7 -3 9 3 6 6 -4 16 0 22 7 14 16 -3 17
-29 1 -10 -5 -9 -1 3 13 19 20 7 26 -20 9 -6 -4 -15 -2 -19 4 -4 7 -3 9 3 6 6
-4 16 0 23 8 7 8 17 12 24 8 6 -4 5 1 -3 10 -14 18 -23 22 -18 9 1 -4 -2 -9
-8 -10 -5 -2 -15 -8 -22 -13 -7 -7 -14 -6 -19 2 -4 7 -3 9 3 6 6 -4 16 0 22 7
9 11 9 14 -1 12 -7 -1 -18 -5 -25 -9 -6 -4 -15 -2 -19 4 -4 7 -3 9 3 6 6 -4
16 0 22 7 14 16 -3 17 -29 1 -10 -5 -9 -1 3 13 19 20 7 26 -20 9 -6 -4 -15 -2
-19 4 -4 7 -3 9 3 6 6 -4 16 0 23 8 7 8 17 12 24 8 6 -4 5 1 -3 10 -14 18 -23
22 -18 10 1 -5 -1 -8 -4 -8 -3 0 -13 -6 -22 -13 -12 -10 -17 -10 -23 -1 -4 7
-3 9 3 6 6 -4 16 0 22 7 9 11 9 14 -1 12 -7 -1 -18 -5 -25 -9 -6 -4 -15 -2
-19 4 -4 7 -3 9 3 6 6 -4 16 0 22 7 14 16 -3 17 -29 1 -10 -5 -9 -1 3 13 19
20 7 26 -20 9 -6 -4 -15 -2 -19 4 -4 7 -3 9 3 6 6 -4 16 0 23 8 7 8 17 12 24
8 6 -4 5 1 -3 10 -14 18 -23 22 -18 9 1 -4 -2 -9 -8 -10 -5 -2 -15 -8 -22 -13
-7 -7 -14 -6 -19 2 -4 7 -3 9 3 6 6 -4 16 0 22 7 9 11 9 14 -1 12 -7 -1 -18
-5 -25 -9 -6 -4 -15 -2 -19 4 -4 7 -3 9 3 6 6 -4 16 0 22 7 14 16 -3 17 -29 1
-10 -5 -9 -1 3 13 19 20 7 26 -20 9 -6 -4 -15 -2 -19 4 -4 7 -3 9 3 6 6 -4 16
0 23 8 7 8 17 12 24 8 6 -4 5 1 -3 10 -14 18 -23 22 -18 10 1 -5 -1 -8 -4 -8
-3 0 -13 -6 -22 -13 -12 -10 -17 -10 -23 -1 -4 7 -3 9 3 6 6 -4 16 0 22 7 9
11 9 14 -1 12 -7 -1 -18 -5 -25 -9 -6 -4 -15 -2 -19 4 -4 7 -3 9 3 6 6 -4 16
0 22 7 14 16 -3 17 -29 1 -10 -5 -9 -1 3 13 19 20 7 26 -20 9 -6 -4 -15 -2
-19 4 -4 7 -3 9 3 6 6 -4 16 0 23 8 7 8 16 12 21 9 15 -9 10 3 -7 16 -12 11
-15 11 -12 0 2 -8 -1 -14 -7 -15 -5 0 -15 -4 -22 -8 -6 -4 -15 -2 -19 4 -4 7
-3 9 3 6 6 -4 16 0 22 7 9 11 9 14 -1 12 -7 -1 -18 -5 -25 -9 -6 -4 -15 -2
-19 4 -4 7 -3 9 3 6 6 -4 16 0 22 7 14 16 -3 17 -29 1 -10 -5 -9 -1 3 13 19
20 7 26 -20 9 -6 -4 -15 -2 -19 4 -4 7 -3 9 3 6 6 -4 16 0 23 8 7 8 16 12 21
9 15 -9 10 3 -7 16 -12 11 -15 11 -12 0 2 -8 -1 -14 -7 -15 -5 0 -15 -4 -22
-8 -6 -4 -15 -2 -19 4 -4 7 -3 9 3 6 6 -4 16 0 22 7 9 11 9 14 -1 12 -7 -1
-18 -5 -25 -9 -6 -4 -15 -2 -19 4 -4 7 -3 9 3 6 6 -4 16 0 22 7 14 16 -3 17
-29 1 -10 -5 -9 -1 3 13 19 20 7 26 -20 9 -6 -4 -15 -2 -19 4 -4 7 -3 9 3 6 6
-4 16 0 23 8 7 8 16 12 21 9 15 -9 10 3 -7 16 -12 11 -15 11 -12 0 2 -8 -1
-14 -7 -15 -5 0 -15 -4 -22 -8 -6 -4 -15 -2 -19 4 -4 7 -3 9 3 6 6 -4 16 0 22
7 9 11 9 14 -1 12 -7 -1 -18 -5 -25 -9 -6 -4 -15 -2 -19 4 -4 7 -3 9 3 6 6 -4
16 0 22 7 14 16 -3 17 -29 1 -10 -5 -9 -1 3 13 19 20 7 26 -20 9 -6 -4 -15 -2
-19 4 -4 7 -3 9 3 6 6 -4 16 0 23 8 7 8 16 12 21 9 15 -9 10 3 -7 16 -12 11
-15 11 -12 0 2 -8 -1 -14 -7 -15 -5 0 -15 -4 -22 -8 -6 -4 -15 -2 -19 4 -4 7
-3 9 3 6 6 -4 16 0 22 7 9 11 9 14 -1 12 -7 -1 -18 -5 -25 -9 -6 -4 -15 -2
-19 4 -4 7 -3 9 3 6 6 -4 16 0 22 7 14 16 -3 17 -29 1 -10 -5 -9 -1 3 13 19
20 7 26 -20 9 -6 -4 -15 -2 -19 4 -4 7 -3 9 3 6 6 -4 16 0 23 8 7 8 16 12 21
9 15 -9 10 3 -7 16 -12 11 -15 11 -12 0 2 -8 -1 -14 -7 -15 -5 0 -15 -4 -22
-8 -6 -4 -15 -2 -19 4 -4 7 -3 9 3 6 6 -4 16 0 22 7 9 11 9 14 -1 12 -7 -1
-18 -5 -25 -9 -6 -4 -15 -2 -19 4 -4 7 -3 9 3 6 6 -4 16 0 22 7 14 16 -3 17
-29 1 -10 -5 -9 -1 3 13 19 20 7 26 -20 9 -6 -4 -15 -2 -19 4 -4 7 -3 9 3 6 6
-4 16 0 23 8 7 8 16 12 21 9 15 -9 10 3 -7 16 -12 11 -15 11 -12 0 2 -8 -1
-14 -7 -15 -5 0 -15 -4 -22 -8 -6 -4 -15 -2 -19 4 -4 7 -3 9 3 6 6 -4 16 0 22
7 9 11 9 14 -1 12 -7 -1 -18 -5 -25 -9 -6 -4 -15 -2 -19 4 -4 7 -3 9 3 6 6 -4
16 0 22 7 14 16 -3 17 -29 1 -10 -5 -9 -1 3 13 19 20 7 26 -20 9 -6 -4 -15 -2
-19 4 -4 7 -3 9 3 6 6 -4 16 0 23 8 7 8 16 12 21 9 15 -9 10 3 -7 16 -12 11
-15 11 -12 0 2 -8 -1 -14 -7 -15 -5 0 -15 -4 -22 -8 -6 -4 -15 -2 -19 4 -4 7
-3 9 3 6 6 -4 16 0 22 7 9 11 9 14 -1 12 -7 -1 -18 -5 -25 -9 -6 -4 -15 -2
-19 4 -4 7 -3 9 3 6 6 -4 16 0 22 7 14 16 -3 17 -29 1 -10 -5 -9 -1 3 13 19
20 7 26 -20 9 -6 -4 -15 -2 -19 4 -4 7 -3 9 3 6 6 -4 16 0 23 8 7 8 16 12 21
9 15 -9 10 3 -7 16 -12 11 -15 11 -12 0 2 -8 -1 -14 -7 -15 -5 0 -15 -4 -22
-8 -6 -4 -15 -2 -19 4 -4 7 -3 9 3 6 6 -4 16 0 22 7 9 11 9 14 -1 12 -7 -1
-18 -5 -25 -9 -6 -4 -15 -2 -19 4 -4 7 -3 9 3 6 6 -4 16 0 22 7 14 16 -3 17
-29 1 -10 -5 -9 -1 3 13 19 20 7 26 -20 9 -6 -4 -15 -2 -19 4 -4 7 -3 9 3 6 6
-4 16 0 23 8 7 8 16 12 21 9 15 -9 10 3 -7 16 -12 11 -15 11 -12 0 2 -8 -1
-14 -7 -15 -5 0 -15 -4 -22 -8 -6 -4 -15 -2 -19 4 -4 7 -3 9 3 6 6 -4 16 0 22
7 9 11 9 14 -1 12 -7 -1 -18 -5 -25 -9 -6 -4 -15 -2 -19 4 -4 7 -3 9 3 6 6 -4
16 0 22 7 14 16 -3 17 -29 1 -10 -5 -9 -1 3 13 19 20 7 26 -20 9 -6 -4 -15 -2
-19 4 -4 7 -3 9 3 6 6 -4 16 0 23 8 7 8 16 12 21 9 15 -9 10 3 -7 16 -12 11
-15 11 -12 0 2 -8 -1 -14 -7 -15 -5 0 -15 -4 -22 -8 -6 -4 -15 -2 -19 4 -4 7
-3 9 3 6 6 -4 16 0 22 7 9 11 9 14 -1 12 -7 -1 -18 -5 -25 -9 -6 -4 -15 -2
-19 4 -4 7 -3 9 3 6 6 -4 16 0 22 7 14 16 -3 17 -29 1 -10 -5 -9 -1 3 13 19
20 7 26 -20 9 -6 -4 -15 -2 -19 4 -4 7 -3 9 3 6 6 -4 16 0 23 8 7 8 16 12 21
9 15 -9 10 3 -7 16 -12 11 -15 11 -12 0 2 -8 -1 -14 -7 -15 -5 0 -15 -4 -22
-8 -6 -4 -15 -2 -19 4 -4 7 -3 9 3 6 6 -4 16 0 22 7 9 11 9 14 -1 12 -7 -1
-18 -5 -25 -9 -6 -4 -15 -2 -19 4 -4 7 -3 9 3 6 6 -4 16 0 22 7 14 16 -3 17
-29 1 -10 -5 -9 -1 3 13 19 20 7 26 -20 9 -6 -4 -15 -2 -19 4 -4 7 -3 9 3 6 6
-4 16 0 23 8 7 8 16 12 21 9 15 -9 10 3 -7 16 -12 11 -15 11 -12 0 2 -8 -1
-14 -7 -15 -5 0 -15 -4 -22 -8 -6 -4 -15 -2 -19 4 -4 7 -3 9 3 6 6 -4 16 0 22
7 9 11 9 14 -1 12 -7 -1 -18 -5 -25 -9 -6 -4 -15 -2 -19 4 -4 7 -3 9 3 6 6 -4
16 0 22 7 14 16 -3 17 -29 1 -10 -5 -9 -1 3 13 19 20 7 26 -20 9 -6 -4 -15 -2
-19 4 -4 7 -3 9 3 6 6 -4 16 0 23 8 7 8 16 12 21 9 15 -9 10 3 -7 16 -12 11
-15 11 -12 0 2 -8 -1 -14 -7 -15 -5 0 -15 -4 -22 -8 -6 -4 -15 -2 -19 4 -4 7
-3 9 3 6 6 -4 16 0 22 7 9 11 9 14 -1 12 -7 -1 -18 -5 -25 -9 -6 -4 -15 -2
-19 4 -4 7 -3 9 3 6 6 -4 16 0 22 7 14 16 -3 17 -29 1 -10 -5 -9 -1 3 13 19
20 7 26 -20 9 -6 -4 -15 -2 -19 4 -4 7 -3 9 3 6 6 -4 16 0 23 8 7 8 16 12 21
9 15 -9 10 3 -7 16 -12 11 -15 11 -12 0 2 -8 -1 -14 -7 -15 -5 0 -15 -4 -22
-8 -6 -4 -15 -2 -19 4 -4 7 -3 9 3 6 6 -4 16 0 22 7 9 11 9 14 -1 12 -7 -1
-18 -5 -25 -9 -6 -4 -15 -2 -19 4 -4 7 -3 9 3 6 6 -4 16 0 22 7 14 16 -3 17
-29 1 -10 -5 -9 -1 3 13 19 20 7 26 -20 9 -6 -4 -15 -2 -19 4 -4 7 -3 9 3 6 6
-4 16 0 23 8 7 8 16 12 21 9 15 -9 10 3 -7 16 -12 11 -15 11 -12 0 2 -8 -1
-14 -7 -15 -5 0 -15 -4 -22 -8 -6 -4 -15 -2 -19 4 -4 7 -3 9 3 6 6 -4 16 0 22
7 9 11 9 14 -1 12 -7 -1 -18 -5 -25 -9 -6 -4 -15 -2 -19 4 -4 7 -3 9 3 6 6 -4
16 0 22 7 14 16 -3 17 -29 1 -10 -5 -9 -1 3 13 19 20 7 26 -20 9 -6 -4 -15 -2
-19 4 -4 7 -3 9 3 6 6 -4 16 0 23 8 7 8 16 12 21 9 15 -9 10 3 -7 16 -12 11
-15 11 -12 0 2 -8 -1 -14 -7 -15 -5 0 -15 -4 -22 -8 -6 -4 -15 -2 -19 4 -4 7
-3 9 3 6 6 -4 16 0 22 7 9 11 9 14 -1 12 -7 -1 -18 -5 -25 -9 -6 -4 -15 -2
-19 4 -4 7 -3 9 3 6 6 -4 16 0 22 7 14 16 -3 17 -29 1 -10 -5 -9 -1 3 13 19
20 7 26 -20 9 -6 -4 -15 -2 -19 4 -4 7 -3 9 3 6 6 -4 16 0 23 8 7 8 16 12 21
9 15 -9 10 3 -7 16 -12 11 -15 11 -12 0 2 -8 -1 -14 -7 -15 -5 0 -15 -4 -22
-8 -6 -4 -15 -2 -19 4 -4 7 -3 9 3 6 6 -4 16 0 22 7 9 11 9 14 -1 12 -7 -1
-18 -5 -25 -9 -6 -4 -15 -2 -19 4 -4 7 -3 9 3 6 6 -4 16 0 22 7 14 16 -3 17
-29 1 -11 -6 -10 -3 2 11 17 19 16 20 -17 20 -18 0 -33 -3 -32 -6 1 -3 -3 -5
-8 -5 -5 0 -9 3 -8 7 2 4 -2929 8 -6512 8 l-6515 0 0 -246z m12180 226 c8 -5
11 -10 5 -10 -5 0 -17 5 -25 10 -8 5 -10 10 -5 10 6 0 17 -5 25 -10z m842 -8
c9 -9 16 -8 30 5 10 9 18 13 18 10 0 -4 0 -10 0 -14 1 -16 74 -82 84 -76 6 3
8 2 3 -2 -10 -11 63 -86 76 -78 6 3 7 2 4 -4 -8 -13 67 -85 79 -76 5 5 6 4 1
-1 -9 -12 63 -87 76 -79 6 3 7 2 4 -4 -7 -11 66 -86 76 -78 4 3 5 2 2 -2 -8
-11 67 -83 79 -76 6 3 8 2 3 -2 -10 -12 63 -86 77 -78 6 3 8 2 3 -2 -10 -12
63 -86 77 -78 6 3 8 2 3 -2 -10 -12 63 -86 77 -78 6 3 8 2 3 -2 -10 -11 63
-86 76 -78 6 3 7 2 4 -4 -7 -11 66 -86 76 -78 4 3 5 2 2 -2 -8 -11 67 -83 79
-76 6 3 8 2 3 -2 -10 -12 63 -86 77 -78 6 3 8 2 3 -2 -10 -12 63 -86 77 -78 6
3 8 2 3 -2 -10 -12 63 -86 77 -78 6 3 8 2 3 -2 -10 -12 63 -86 77 -78 6 3 8 2
3 -2 -10 -12 63 -86 77 -78 6 3 8 2 3 -2 -10 -12 63 -86 77 -78 6 3 8 2 3 -2
-10 -12 63 -86 77 -78 6 3 8 2 3 -2 -10 -12 63 -86 77 -78 6 3 8 2 3 -2 -10
-11 63 -86 76 -78 6 3 7 2 4 -4 -7 -11 66 -86 76 -78 4 3 5 2 2 -2 -8 -11 67
-83 79 -76 6 3 8 2 3 -2 -10 -12 63 -86 77 -78 6 3 8 2 3 -2 -10 -12 63 -86
77 -78 6 3 8 2 3 -2 -10 -12 63 -86 77 -78 6 3 8 2 3 -2 -10 -11 63 -86 76
-78 6 3 7 1 4 -4 -7 -11 21 -42 38 -41 6 0 15 4 20 8 7 6 537 -517 1460 -1441
798 -798 1443 -1449 1435 -1447 -8 2 -15 -4 -15 -12 -2 -20 66 -91 79 -83 6 3
8 2 3 -2 -10 -12 63 -86 77 -78 6 3 8 2 3 -2 -10 -12 63 -86 77 -78 6 3 8 2 3
-2 -10 -12 63 -86 77 -78 6 3 8 2 3 -2 -10 -12 63 -86 77 -78 6 3 8 2 3 -2
-10 -12 63 -86 77 -78 6 3 8 2 3 -2 -10 -12 63 -86 77 -78 6 3 8 2 3 -2 -10
-12 63 -86 77 -78 6 3 8 2 3 -2 -10 -12 63 -86 77 -78 6 3 8 2 3 -2 -10 -12
63 -86 77 -78 6 3 8 2 3 -2 -10 -12 63 -86 77 -78 6 3 8 2 3 -2 -10 -11 63
-86 76 -78 6 3 7 1 4 -4 -7 -11 21 -41 37 -42 13 -1 17 -30 5 -37 -6 -3 -5
-11 2 -20 6 -8 10 -14 8 -15 -33 -7 -36 -5 -35 15 1 15 -5 21 -19 20 -16 -1
-21 5 -21 22 0 18 3 21 13 12 7 -5 11 -14 8 -18 -8 -14 24 -5 38 10 10 12 9
12 -5 1 -17 -13 -23 -8 -18 14 1 6 -2 7 -6 2 -9 -8 -46 22 -39 33 2 4 -2 7
-10 7 -10 0 -12 -4 -5 -12 5 -7 6 -16 2 -20 -4 -5 0 -5 8 0 8 5 12 4 7 0 -16
-18 -34 -13 -33 9 1 15 -5 21 -19 20 -16 -1 -21 5 -21 22 0 18 3 21 13 12 7
-5 11 -14 8 -18 -6 -10 22 -7 32 4 4 4 1 6 -7 4 -9 -2 -14 3 -12 12 2 8 0 12
-4 7 -9 -8 -46 22 -39 33 2 4 -2 7 -10 7 -10 0 -12 -4 -5 -12 5 -7 6 -16 2
-20 -4 -5 0 -5 8 0 8 5 12 4 7 0 -16 -18 -34 -13 -33 9 1 15 -5 21 -19 20 -16
-1 -21 5 -21 22 0 18 3 21 13 12 7 -5 11 -14 8 -18 -6 -10 22 -7 32 4 4 4 1 6
-7 4 -9 -2 -14 3 -12 12 2 8 0 12 -4 7 -9 -8 -46 22 -39 33 2 4 -2 7 -10 7
-10 0 -12 -4 -5 -12 5 -7 6 -16 2 -20 -4 -5 0 -5 8 0 8 5 12 4 7 0 -16 -18
-34 -13 -33 9 1 15 -5 21 -19 20 -16 -1 -21 5 -21 22 0 18 3 21 13 12 7 -5 11
-14 8 -18 -6 -10 22 -7 32 4 4 4 1 6 -7 4 -9 -2 -14 3 -12 12 2 8 0 12 -4 7
-9 -8 -46 22 -39 33 2 4 -2 7 -10 7 -10 0 -12 -4 -5 -12 5 -7 6 -16 2 -20 -4
-5 0 -5 8 0 8 5 12 4 7 0 -16 -18 -34 -13 -33 9 1 15 -5 21 -19 20 -16 -1 -21
5 -21 22 0 18 3 21 13 12 7 -5 11 -14 8 -18 -6 -10 22 -7 32 4 4 4 1 6 -7 4
-9 -2 -14 3 -12 12 2 8 0 12 -4 7 -9 -8 -46 22 -39 33 2 4 -2 7 -10 7 -10 0
-12 -4 -5 -12 5 -7 6 -16 2 -20 -4 -5 0 -5 8 0 8 5 12 4 7 0 -16 -18 -34 -13
-33 9 1 15 -5 21 -19 20 -16 -1 -21 5 -21 22 0 18 3 21 13 12 7 -5 11 -14 8
-18 -6 -10 22 -7 32 4 4 4 1 6 -7 4 -9 -2 -14 3 -12 12 2 8 0 12 -4 7 -9 -8
-46 22 -39 33 2 4 -2 7 -10 7 -10 0 -12 -4 -5 -12 5 -7 6 -16 2 -20 -4 -5 0
-5 8 0 8 5 12 4 7 0 -16 -18 -34 -13 -33 9 1 15 -5 21 -19 20 -16 -1 -21 5
-21 22 0 18 3 21 13 12 7 -5 11 -14 8 -18 -6 -10 22 -7 32 4 4 4 1 6 -7 4 -9
-2 -14 3 -12 12 2 8 0 12 -4 7 -9 -8 -46 22 -39 33 2 4 -2 7 -10 7 -10 0 -12
-4 -5 -12 5 -7 6 -16 2 -20 -4 -5 0 -5 8 0 8 5 12 4 7 0 -16 -18 -34 -13 -33
9 1 15 -5 21 -19 20 -16 -1 -21 5 -21 22 0 18 3 21 13 12 7 -5 11 -14 8 -18
-6 -10 22 -7 32 4 4 4 1 6 -7 4 -9 -2 -14 3 -12 12 2 8 0 12 -4 7 -9 -8 -46
22 -39 33 2 4 -2 7 -10 7 -10 0 -12 -4 -5 -12 5 -7 6 -16 2 -20 -4 -5 0 -5 8
0 8 5 12 4 7 0 -16 -18 -34 -13 -33 9 1 15 -5 21 -19 20 -16 -1 -21 5 -21 22
0 18 3 21 13 12 7 -5 11 -14 8 -18 -6 -10 22 -7 32 4 4 4 1 6 -7 4 -9 -2 -14
3 -12 12 2 8 0 12 -4 7 -9 -8 -46 22 -39 33 2 4 -2 7 -10 7 -10 0 -12 -4 -5
-12 5 -7 6 -16 2 -20 -4 -5 0 -5 8 0 8 5 12 4 7 0 -16 -18 -34 -13 -33 9 1 15
-5 21 -19 20 -16 -1 -21 5 -21 22 0 18 3 21 13 12 7 -5 11 -14 8 -18 -6 -10
22 -7 32 4 4 4 1 6 -7 4 -9 -2 -14 3 -12 12 2 8 0 12 -4 7 -9 -8 -46 22 -39
33 2 4 -2 7 -10 7 -10 0 -12 -4 -5 -12 5 -7 6 -16 2 -20 -4 -5 0 -5 8 0 8 5
12 4 7 0 -16 -18 -34 -13 -33 9 1 15 -5 21 -19 20 -16 -1 -21 5 -21 22 0 18 3
21 13 12 7 -5 11 -14 8 -18 -6 -10 22 -7 32 4 4 4 1 6 -7 4 -9 -2 -14 3 -12
12 2 8 0 12 -4 7 -9 -8 -46 22 -39 33 2 4 -2 7 -10 7 -10 0 -12 -4 -5 -12 5
-7 6 -16 2 -20 -4 -5 0 -5 8 0 8 5 12 4 7 0 -16 -18 -34 -13 -33 9 1 15 -5 21
-19 20 -16 -1 -21 5 -21 22 0 18 3 21 13 12 7 -5 11 -14 8 -18 -6 -10 22 -7
32 4 4 4 1 6 -7 4 -9 -2 -14 3 -12 12 2 8 0 12 -4 7 -9 -8 -46 22 -39 33 2 4
-2 7 -10 7 -10 0 -12 -4 -5 -12 5 -7 6 -16 2 -20 -4 -5 0 -5 8 0 8 5 12 4 7 0
-16 -18 -34 -13 -33 9 1 15 -5 21 -19 20 -16 -1 -21 5 -21 22 0 18 3 21 13 12
7 -5 11 -14 8 -18 -6 -10 22 -7 32 4 4 4 1 6 -7 4 -8 -2 -14 3 -12 10 1 8 -2
11 -6 8 -5 -3 -17 3 -27 14 -17 18 -14 25 9 21 5 -1 3 6 -5 15 -8 9 -12 18 -9
20 3 1 1 6 -3 11 -5 4 -7 -2 -5 -14 1 -12 -1 -22 -7 -22 -5 1 -9 4 -8 8 1 4
-9 7 -22 7 -14 0 -23 -1 -22 -2 1 -1 5 -2 8 -1 13 4 48 -36 42 -46 -4 -6 -1
-7 8 -2 8 5 10 4 6 0 -16 -18 -34 -13 -33 9 1 15 -5 21 -20 20 -22 -1 -25 10
-11 33 5 8 1 11 -14 8 -17 -3 -19 -2 -9 10 10 12 8 13 -10 10 -18 -3 -20 -2
-10 10 10 12 8 13 -10 10 -18 -3 -20 -2 -10 10 10 12 8 13 -10 10 -18 -3 -20
-2 -10 10 10 12 8 13 -10 10 -18 -3 -20 -2 -10 10 10 12 8 13 -10 10 -18 -3
-20 -2 -10 10 10 12 8 13 -10 10 -18 -3 -20 -2 -10 10 10 12 8 13 -10 10 -18
-3 -20 -2 -10 10 10 12 8 13 -10 10 -18 -3 -20 -2 -10 10 10 12 8 13 -10 10
-18 -3 -20 -2 -10 10 10 12 8 13 -10 10 -18 -3 -20 -2 -10 10 10 12 8 13 -10
10 -18 -3 -20 -2 -10 10 10 12 8 13 -10 10 -18 -3 -20 -2 -10 10 10 12 8 13
-10 10 -18 -3 -20 -2 -10 10 10 12 8 13 -10 10 -18 -3 -20 -2 -10 10 10 12 8
13 -10 10 -18 -3 -20 -2 -10 10 10 12 8 13 -10 10 -18 -3 -20 -2 -10 10 10 12
8 13 -10 10 -18 -3 -20 -2 -10 10 10 12 8 13 -10 10 -18 -3 -20 -2 -10 10 10
12 8 13 -10 10 -18 -3 -20 -2 -10 10 10 12 8 13 -10 10 -18 -3 -20 -2 -10 10
10 12 8 13 -10 10 -18 -3 -20 -2 -10 10 10 12 8 13 -10 10 -18 -3 -20 -2 -10
10 10 12 8 13 -10 10 -18 -3 -20 -2 -10 10 10 12 8 13 -10 10 -18 -3 -20 -2
-10 10 10 12 8 13 -10 10 -18 -3 -20 -2 -10 10 10 12 8 13 -10 10 -18 -3 -20
-2 -10 10 10 12 8 13 -10 10 -18 -3 -20 -2 -10 10 10 12 8 13 -10 10 -18 -3
-20 -2 -10 10 10 12 8 13 -10 10 -18 -3 -20 -2 -10 10 10 12 8 13 -10 10 -18
-3 -20 -2 -10 10 10 12 8 13 -10 10 -18 -3 -20 -2 -10 10 10 12 8 13 -10 10
-18 -3 -20 -2 -10 10 10 12 8 13 -10 10 -18 -3 -20 -2 -10 10 10 12 8 13 -10
10 -18 -3 -20 -2 -10 10 10 12 8 13 -10 10 -18 -3 -20 -2 -10 10 10 12 8 13
-10 10 -18 -3 -20 -2 -10 10 10 12 8 13 -10 10 -18 -3 -20 -2 -10 10 10 12 8
13 -10 10 -18 -3 -20 -2 -10 10 10 12 8 13 -10 10 -18 -3 -20 -2 -10 10 10 12
8 13 -10 10 -18 -3 -20 -2 -10 10 10 12 8 13 -10 10 -18 -3 -20 -2 -10 10 10
12 8 13 -10 10 -18 -3 -20 -2 -10 10 10 12 8 13 -10 10 -18 -3 -20 -2 -10 10
10 12 8 13 -10 10 -18 -3 -20 -2 -10 10 10 12 8 13 -10 10 -18 -3 -20 -2 -10
10 10 12 8 13 -10 10 -18 -3 -20 -2 -10 10 10 12 8 13 -10 10 -18 -3 -20 -2
-10 10 10 12 8 13 -10 10 -18 -3 -20 -2 -10 10 10 12 8 13 -10 10 -18 -3 -20
-2 -10 10 10 12 8 13 -10 10 -18 -3 -20 -2 -10 10 10 12 8 13 -10 10 -18 -3
-20 -2 -10 10 10 12 8 13 -10 10 -18 -3 -20 -2 -10 10 10 12 8 13 -10 10 -18
-3 -20 -2 -10 10 10 12 8 13 -10 10 -18 -3 -20 -2 -10 10 10 12 8 13 -10 10
-18 -3 -20 -2 -10 10 10 12 8 13 -10 10 -18 -3 -20 -2 -10 10 10 12 8 13 -10
10 -18 -3 -20 -2 -10 10 10 12 8 13 -10 10 -18 -3 -20 -2 -10 10 10 12 8 13
-10 10 -18 -3 -20 -2 -10 10 10 12 8 13 -10 10 -18 -3 -20 -2 -10 10 10 12 8
13 -10 10 -18 -3 -20 -2 -10 10 10 12 8 13 -10 10 -18 -3 -20 -2 -10 10 10 12
8 13 -10 10 -18 -3 -20 -2 -10 10 10 12 8 13 -10 10 -18 -3 -20 -2 -10 10 10
12 8 13 -10 10 -18 -3 -20 -2 -10 10 10 12 8 13 -10 10 -18 -3 -20 -2 -10 10
10 12 8 13 -10 10 -18 -3 -20 -2 -10 10 10 12 8 13 -10 10 -18 -3 -20 -2 -10
10 10 12 8 13 -10 10 -18 -3 -20 -2 -10 10 10 12 8 13 -10 10 -18 -3 -20 -2
-10 10 10 12 8 13 -10 10 -18 -3 -20 -2 -10 10 10 12 8 13 -10 10 -18 -3 -20
-2 -10 10 10 12 8 13 -10 10 -18 -3 -20 -2 -10 10 10 12 8 13 -10 10 -18 -3
-20 -2 -10 10 10 12 8 13 -10 10 -18 -3 -20 -2 -10 10 10 12 8 13 -10 10 -18
-3 -20 -2 -10 10 10 12 8 13 -10 10 -18 -3 -20 -2 -10 10 10 12 8 13 -10 10
-18 -3 -20 -2 -10 10 10 12 8 13 -10 10 -18 -3 -20 -2 -10 10 10 12 8 13 -10
10 -18 -3 -20 -2 -10 10 10 12 8 13 -10 10 -18 -3 -20 -2 -10 10 10 12 8 13
-10 10 -18 -3 -20 -2 -10 10 10 12 8 13 -10 10 -18 -3 -20 -2 -10 10 10 12 8
13 -10 10 -18 -3 -20 -2 -10 10 10 12 8 13 -10 10 -18 -3 -20 -2 -10 10 10 12
8 13 -10 10 -18 -3 -20 -2 -10 10 10 12 8 13 -10 10 -18 -3 -20 -2 -10 10 10
12 8 13 -10 10 -18 -3 -20 -2 -10 10 10 12 8 13 -10 10 -18 -3 -20 -2 -10 10
10 12 8 13 -10 10 -18 -3 -20 -2 -10 10 10 12 8 13 -10 10 -18 -3 -20 -2 -10
10 10 12 8 13 -10 10 -18 -3 -20 -2 -10 10 10 12 8 13 -10 10 -18 -3 -20 -2
-10 10 10 12 8 13 -10 10 -18 -3 -20 -2 -10 10 10 12 8 13 -10 10 -18 -3 -20
-2 -10 10 10 12 8 13 -10 10 -18 -3 -20 -2 -10 10 10 12 8 13 -10 10 -18 -3
-20 -2 -10 10 10 12 8 13 -10 10 -18 -3 -20 -2 -10 10 10 12 8 13 -10 10 -18
-3 -20 -2 -10 10 10 12 8 13 -10 10 -18 -3 -20 -2 -10 10 10 12 8 13 -10 10
-18 -3 -20 -2 -10 10 10 12 8 13 -10 10 -18 -3 -20 -2 -10 10 10 12 8 13 -10
10 -18 -3 -20 -2 -10 10 10 12 8 13 -10 10 -18 -3 -20 -2 -10 10 10 12 8 13
-10 10 -18 -3 -20 -2 -10 10 10 12 8 13 -10 10 -18 -3 -20 -2 -10 10 10 12 8
13 -10 10 -18 -3 -20 -2 -10 10 10 12 8 13 -10 10 -18 -3 -20 -2 -10 10 10 12
8 13 -10 10 -18 -3 -20 -2 -10 10 10 12 8 13 -10 10 -18 -3 -20 -2 -10 10 10
12 8 13 -10 10 -18 -3 -20 -2 -10 10 10 12 8 13 -10 10 -18 -3 -20 -2 -10 10
10 12 8 13 -10 10 -18 -3 -20 -2 -10 10 10 12 8 13 -10 10 -18 -3 -20 -2 -10
10 10 12 8 13 -10 10 -18 -3 -20 -2 -10 10 10 12 8 13 -10 10 -18 -3 -20 -2
-10 10 10 12 8 13 -10 10 -18 -3 -20 -2 -10 10 10 12 8 13 -10 10 -18 -3 -20
-2 -10 10 10 12 8 13 -10 10 -18 -3 -20 -2 -10 10 10 12 8 13 -10 10 -18 -3
-20 -2 -10 10 10 12 8 13 -10 10 -18 -3 -20 -2 -10 10 10 12 8 13 -10 10 -18
-3 -20 -2 -10 10 10 12 8 13 -10 10 -18 -3 -20 -2 -10 10 10 12 8 13 -10 10
-18 -3 -20 -2 -10 10 10 12 8 13 -10 10 -18 -3 -20 -2 -10 10 10 12 8 13 -10
10 -18 -3 -20 -2 -10 10 10 12 8 13 -10 10 -18 -3 -20 -2 -10 10 10 12 8 13
-10 10 -18 -3 -20 -2 -10 10 10 12 8 13 -10 10 -18 -3 -20 -2 -10 10 10 12 8
13 -10 10 -18 -3 -20 -2 -10 10 10 12 8 13 -10 10 -18 -3 -20 -2 -10 10 10 12
8 13 -10 10 -18 -3 -20 -2 -10 10 10 12 8 13 -10 10 -18 -3 -20 -2 -10 10 10
12 8 13 -10 10 -18 -3 -20 -2 -10 10 10 12 8 13 -10 10 -18 -3 -20 -2 -10 10
10 12 8 13 -10 10 -17 -3 -19 -1 -11 9 9 11 6 13 -18 11 -28 -2 -34 7 -18 31
4 7 0 17 -8 24 -8 7 -12 17 -9 22 3 5 14 2 25 -8 10 -9 19 -14 19 -11 0 4 0 9
0 12 0 3 -2 4 -4 3 -3 -2 -16 7 -29 20 -16 15 -27 20 -32 13 -9 -15 -27 -3
-19 12 4 7 3 9 -1 4 -9 -8 -47 22 -40 33 2 4 -2 7 -10 7 -10 0 -12 -4 -5 -12
5 -7 6 -16 2 -20 -4 -5 0 -5 8 0 8 5 12 4 7 0 -16 -18 -34 -13 -33 9 1 15 -5
21 -19 20 -16 -1 -21 5 -21 22 0 18 3 21 13 12 7 -5 11 -14 8 -18 -6 -10 22
-7 32 4 4 4 1 6 -7 4 -9 -2 -14 3 -12 12 2 8 0 12 -4 7 -9 -8 -46 22 -39 33 2
4 -2 7 -10 7 -10 0 -12 -4 -5 -12 5 -7 6 -16 2 -20 -4 -5 0 -5 8 0 8 5 12 4 7
0 -16 -18 -34 -13 -33 9 1 15 -5 21 -19 20 -16 -1 -21 5 -21 22 0 18 3 21 13
12 7 -5 11 -14 8 -18 -6 -10 22 -7 32 4 4 4 1 6 -7 4 -9 -2 -14 3 -12 12 2 8
0 12 -4 7 -9 -8 -46 22 -39 33 2 4 -2 7 -10 7 -10 0 -12 -4 -5 -12 5 -7 6 -16
2 -20 -4 -5 0 -5 8 0 8 5 12 4 7 0 -16 -18 -34 -13 -33 9 1 15 -5 21 -19 20
-16 -1 -21 5 -21 22 0 18 3 21 13 12 7 -5 11 -14 8 -18 -6 -10 22 -7 32 4 4 4
1 6 -7 4 -9 -2 -14 3 -12 12 2 8 0 12 -4 7 -9 -8 -46 22 -39 33 2 4 -2 7 -10
7 -10 0 -12 -4 -5 -12 5 -7 6 -16 2 -20 -4 -5 0 -5 8 0 8 5 12 4 7 0 -16 -18
-34 -13 -33 9 1 15 -5 21 -19 20 -16 -1 -21 5 -21 22 0 18 3 21 13 12 7 -5 11
-14 8 -18 -6 -10 22 -7 32 4 4 4 1 6 -7 4 -9 -2 -14 3 -12 12 2 8 0 12 -4 7
-9 -8 -46 22 -39 33 2 4 -2 7 -10 7 -10 0 -12 -4 -5 -12 5 -7 6 -16 2 -20 -4
-5 0 -5 8 0 8 5 12 4 7 0 -16 -18 -34 -13 -33 9 1 15 -5 21 -19 20 -16 -1 -21
5 -21 22 0 18 3 21 13 12 7 -5 11 -14 8 -18 -6 -10 22 -7 32 4 4 4 1 6 -7 4
-9 -2 -14 3 -12 12 2 8 0 12 -4 7 -9 -8 -46 22 -39 33 2 4 -2 7 -10 7 -10 0
-12 -4 -5 -12 5 -7 6 -16 2 -20 -4 -5 0 -5 8 0 8 5 12 4 7 0 -16 -18 -34 -13
-33 9 1 15 -5 21 -19 20 -16 -1 -21 5 -21 22 0 18 3 21 13 12 7 -5 11 -14 8
-18 -6 -10 22 -7 32 4 4 4 1 6 -7 4 -9 -2 -14 3 -12 12 2 8 0 12 -4 7 -9 -8
-46 22 -39 33 2 4 -2 7 -10 7 -10 0 -12 -4 -5 -12 5 -7 6 -16 2 -20 -4 -5 0
-5 8 0 8 5 12 4 7 0 -16 -18 -34 -13 -33 9 1 15 -5 21 -19 20 -16 -1 -21 5
-21 22 0 18 3 21 13 12 7 -5 11 -14 8 -18 -6 -10 22 -7 32 4 4 4 1 6 -7 4 -9
-2 -14 3 -12 12 2 8 0 12 -4 7 -9 -8 -46 22 -39 33 2 4 -2 7 -10 7 -10 0 -12
-4 -5 -12 5 -7 6 -16 2 -20 -4 -5 0 -5 8 0 8 5 12 4 7 0 -16 -18 -34 -13 -33
9 1 15 -5 21 -19 20 -16 -1 -21 5 -21 22 0 18 3 21 13 12 7 -5 11 -14 8 -18
-6 -10 22 -7 32 4 4 4 1 6 -7 4 -9 -2 -14 3 -12 12 2 8 0 12 -4 7 -9 -8 -46
22 -39 33 2 4 -2 7 -10 7 -10 0 -12 -4 -5 -12 5 -7 6 -16 2 -20 -4 -5 0 -5 8
0 8 5 12 4 7 0 -16 -18 -34 -13 -33 9 1 15 -5 21 -19 20 -16 -1 -21 5 -21 22
0 18 3 21 13 12 7 -5 11 -14 8 -18 -6 -10 22 -7 32 4 4 4 1 6 -7 4 -9 -2 -14
3 -12 12 2 8 0 12 -4 7 -9 -8 -46 22 -39 33 2 4 -2 7 -10 7 -10 0 -12 -4 -5
-12 5 -7 6 -16 2 -20 -4 -5 0 -5 8 0 8 5 12 4 7 0 -16 -18 -34 -13 -33 9 1 15
-5 21 -19 20 -16 -1 -21 5 -21 22 0 18 3 21 13 12 7 -5 11 -14 8 -18 -6 -10
22 -7 32 4 4 4 1 6 -7 4 -9 -2 -14 3 -12 12 2 8 0 12 -4 7 -9 -8 -46 22 -39
33 2 4 -2 7 -10 7 -10 0 -12 -4 -5 -12 5 -7 6 -16 2 -20 -4 -5 0 -5 8 0 8 5
12 4 7 0 -16 -18 -34 -13 -33 9 1 15 -5 21 -19 20 -16 -1 -21 5 -21 22 0 18 3
21 13 12 7 -5 11 -14 8 -18 -6 -10 22 -7 32 4 4 4 1 6 -7 4 -9 -2 -14 3 -12
12 2 8 0 12 -4 7 -9 -8 -46 22 -39 33 2 4 -2 7 -10 7 -10 0 -12 -4 -5 -12 5
-7 6 -16 2 -20 -4 -5 0 -5 8 0 8 5 12 4 7 0 -16 -18 -34 -13 -33 9 1 15 -5 21
-19 20 -16 -1 -21 5 -21 22 0 18 3 21 13 12 7 -5 11 -14 8 -18 -6 -10 22 -7
32 4 4 4 1 6 -7 4 -9 -2 -14 3 -12 12 2 8 0 12 -4 7 -9 -8 -46 22 -39 33 2 4
-2 7 -10 7 -10 0 -12 -4 -5 -12 5 -7 6 -16 2 -20 -4 -5 0 -5 8 0 8 5 12 4 7 0
-16 -18 -34 -13 -33 9 1 15 -5 21 -19 20 -16 -1 -21 5 -21 22 0 18 3 21 13 12
7 -5 11 -14 8 -18 -6 -10 22 -7 32 4 4 4 1 6 -7 4 -9 -2 -14 3 -12 12 2 8 0
12 -4 7 -9 -8 -46 22 -39 33 2 4 -2 7 -10 7 -10 0 -12 -4 -5 -12 5 -7 6 -16 2
-20 -4 -5 0 -5 8 0 8 5 12 4 7 0 -16 -18 -34 -13 -33 9 1 15 -5 21 -19 20 -16
-1 -21 5 -21 22 0 18 3 21 13 12 7 -5 11 -14 8 -18 -6 -10 22 -7 32 4 4 4 1 6
-7 4 -9 -2 -14 3 -12 12 2 8 0 12 -4 7 -9 -8 -46 22 -39 33 2 4 -2 7 -10 7
-10 0 -12 -4 -5 -12 5 -7 6 -16 2 -20 -4 -5 0 -5 8 0 8 5 12 4 7 0 -16 -18
-34 -13 -33 9 1 15 -5 21 -19 20 -16 -1 -21 5 -21 22 0 18 3 21 13 12 7 -5 11
-14 8 -18 -6 -10 22 -7 32 4 4 4 1 6 -7 4 -9 -2 -14 3 -12 12 2 8 0 12 -4 7
-9 -8 -46 22 -39 33 2 4 -2 7 -10 7 -10 0 -12 -4 -5 -12 5 -7 6 -16 2 -20 -4
-5 0 -5 8 0 8 5 12 4 7 0 -16 -18 -34 -13 -33 9 1 15 -5 21 -19 20 -16 -1 -21
5 -21 22 0 18 3 21 13 12 7 -5 11 -14 8 -18 -6 -10 22 -7 32 4 4 4 1 6 -7 4
-9 -2 -14 3 -12 12 2 8 0 12 -4 7 -9 -8 -46 22 -39 33 2 4 -2 7 -10 7 -10 0
-12 -4 -5 -12 5 -7 6 -16 2 -20 -4 -5 0 -5 8 0 8 5 12 4 7 0 -16 -18 -34 -13
-33 9 1 15 -5 21 -19 20 -16 -1 -21 5 -21 22 0 18 3 21 13 12 7 -5 11 -14 8
-18 -6 -10 22 -7 32 4 4 4 1 6 -7 4 -9 -2 -14 3 -12 12 2 8 0 12 -4 7 -9 -8
-46 22 -39 33 2 4 -2 7 -10 7 -10 0 -12 -4 -5 -12 5 -7 6 -16 2 -20 -4 -5 0
-5 8 0 8 5 12 4 7 0 -16 -18 -34 -13 -33 9 1 15 -5 21 -19 20 -16 -1 -21 5
-21 22 0 18 3 21 13 12 7 -5 11 -14 8 -18 -6 -10 22 -7 32 4 4 4 1 6 -7 4 -9
-2 -14 3 -12 12 2 8 0 12 -4 7 -9 -8 -46 22 -39 33 2 4 -2 7 -10 7 -10 0 -12
-4 -5 -12 5 -7 6 -16 2 -20 -4 -5 0 -5 8 0 8 5 12 4 7 0 -16 -18 -34 -13 -33
9 1 15 -5 21 -19 20 -16 -1 -21 5 -21 22 0 18 3 21 13 12 7 -5 11 -14 8 -18
-6 -10 22 -7 32 4 4 4 1 6 -7 4 -9 -2 -14 3 -12 12 2 8 0 12 -4 7 -9 -8 -46
22 -39 33 2 4 -2 7 -10 7 -10 0 -12 -4 -5 -12 5 -7 6 -16 2 -20 -4 -5 0 -5 8
0 8 5 12 4 7 0 -16 -18 -34 -13 -33 9 1 15 -5 21 -19 20 -16 -1 -21 5 -21 22
0 18 3 21 13 12 7 -5 11 -14 8 -18 -6 -10 22 -7 32 4 4 4 1 6 -7 4 -9 -2 -14
3 -12 12 2 8 0 12 -4 7 -9 -8 -46 22 -39 33 2 4 -2 7 -10 7 -10 0 -12 -4 -5
-12 5 -7 6 -16 2 -20 -4 -5 0 -5 8 0 8 5 12 4 7 0 -16 -18 -34 -13 -33 9 1 15
-5 21 -19 20 -16 -1 -21 5 -21 22 0 18 3 21 13 12 7 -5 11 -14 8 -18 -6 -10
22 -7 32 4 4 4 1 6 -7 4 -9 -2 -14 3 -12 12 2 8 0 12 -4 7 -9 -8 -46 22 -39
33 2 4 -2 7 -10 7 -10 0 -12 -4 -5 -12 5 -7 6 -16 2 -20 -4 -5 0 -5 8 0 8 5
12 4 7 0 -16 -18 -34 -13 -33 9 1 15 -5 21 -19 20 -16 -1 -21 5 -21 22 0 18 3
21 13 12 7 -5 11 -14 8 -18 -6 -10 22 -7 32 4 4 4 1 6 -7 4 -9 -2 -14 3 -12
12 2 8 0 12 -4 7 -9 -8 -46 22 -39 33 2 4 -2 7 -10 7 -10 0 -12 -4 -5 -12 5
-7 6 -16 2 -20 -4 -5 0 -5 8 0 8 5 12 4 7 0 -16 -18 -34 -13 -33 9 1 15 -5 21
-19 20 -16 -1 -21 5 -21 22 0 18 3 21 13 12 7 -5 11 -14 8 -18 -6 -10 22 -7
32 4 4 4 1 6 -7 4 -9 -2 -14 3 -12 12 2 8 0 12 -4 7 -9 -8 -46 22 -39 33 2 4
-2 7 -10 7 -10 0 -12 -4 -5 -12 5 -7 6 -16 2 -20 -4 -5 0 -5 8 0 8 5 12 4 7 0
-16 -18 -34 -13 -33 9 1 15 -5 21 -19 20 -16 -1 -21 5 -21 22 0 18 3 21 13 12
7 -5 11 -14 8 -18 -6 -10 22 -7 32 4 4 4 1 6 -7 4 -9 -2 -14 3 -12 12 2 8 0
12 -4 7 -9 -8 -46 22 -39 33 2 4 -2 7 -10 7 -10 0 -12 -4 -5 -12 5 -7 6 -16 2
-20 -4 -5 0 -5 8 0 8 5 12 4 7 0 -16 -18 -34 -13 -33 9 1 15 -5 21 -19 20 -16
-1 -21 5 -21 22 0 18 3 21 13 12 7 -5 11 -14 8 -18 -6 -10 22 -7 32 4 4 4 1 6
-7 4 -9 -2 -14 3 -12 12 2 8 0 12 -4 7 -9 -8 -46 22 -39 33 2 4 -2 7 -10 7
-10 0 -12 -4 -5 -12 5 -7 6 -16 2 -20 -4 -5 0 -5 8 0 8 5 12 4 7 0 -16 -18
-34 -13 -33 9 1 15 -5 21 -19 20 -16 -1 -21 5 -21 22 0 18 3 21 13 12 7 -5 11
-14 8 -18 -6 -10 22 -7 32 4 4 4 1 6 -7 4 -9 -2 -14 3 -12 12 2 8 0 12 -4 7
-9 -8 -46 22 -39 33 2 4 -2 7 -10 7 -10 0 -12 -4 -5 -12 5 -7 6 -16 2 -20 -4
-5 0 -5 8 0 8 5 12 4 7 0 -16 -18 -34 -13 -33 9 1 15 -5 21 -19 20 -16 -1 -21
5 -21 22 0 18 3 21 13 12 7 -5 11 -14 8 -18 -6 -10 22 -7 32 4 4 4 1 6 -7 4
-9 -2 -14 3 -12 12 2 8 0 12 -4 7 -4 -4 -15 0 -25 9 -13 12 -19 12 -25 3 -5
-8 -3 -10 7 -4 8 5 10 4 6 0 -16 -18 -34 -13 -33 9 1 16 -5 21 -21 20 -13 -1
-20 2 -18 6 7 11 33 6 47 -8z m-921 -23 c-41 -29 -44 -30 -62 -13 -23 21 -18
30 9 15 16 -8 25 -7 44 9 12 11 29 19 37 20 8 0 -5 -14 -28 -31z m226 -29 c27
0 46 -53 58 -160 5 -45 5 -45 -10 10 -8 30 -14 66 -15 79 0 29 -26 61 -50 61
-19 0 -43 25 -54 55 -5 15 1 12 26 -12 19 -18 39 -33 45 -33z m-412 30 c-16
-11 -34 -20 -40 -20 -12 0 46 38 60 39 6 1 -3 -8 -20 -19z m-88 -90 c-6 -16
-13 -28 -15 -26 -6 6 10 56 18 56 5 0 3 -13 -3 -30z m177 9 c-3 -5 -10 -7 -15
-3 -5 3 -7 10 -3 15 3 5 10 7 15 3 5 -3 7 -10 3 -15z m-83 -156 c13 -17 13
-17 -6 -3 -11 8 -22 16 -24 17 -2 2 0 3 6 3 6 0 17 -8 24 -17z m369 -147 c0
-3 -4 -8 -10 -11 -5 -3 -10 -1 -10 4 0 6 5 11 10 11 6 0 10 -2 10 -4z m-12250
-72 c0 -8 -19 -13 -24 -6 -3 5 1 9 9 9 8 0 15 -2 15 -3z m12310 -75 c0 -6 -4
-7 -10 -4 -5 3 -10 11 -10 16 0 6 5 7 10 4 6 -3 10 -11 10 -16z m-12230 -5 c0
-8 -19 -13 -24 -6 -3 5 1 9 9 9 8 0 15 -2 15 -3z m80 -80 c0 -8 -19 -13 -24
-6 -3 5 1 9 9 9 8 0 15 -2 15 -3z m11854 -49 c5 -22 4 -26 -4 -15 -5 8 -10 24
-10 34 0 26 6 18 14 -19z m-11774 -31 c0 -8 -19 -13 -24 -6 -3 5 1 9 9 9 8 0
15 -2 15 -3z m12160 -29 c0 -5 -5 -3 -10 5 -5 8 -10 20 -10 25 0 6 5 3 10 -5
5 -8 10 -19 10 -25z m-12080 -51 c0 -8 -19 -13 -24 -6 -3 5 1 9 9 9 8 0 15 -2
15 -3z m12167 -30 c-3 -3 -12 -4 -19 -1 -8 3 -5 6 6 6 11 1 17 -2 13 -5z m218
-97 c9 -22 11 -36 6 -32 -6 3 -11 12 -11 19 0 7 -12 31 -26 52 -19 29 -21 34
-5 19 11 -11 27 -37 36 -58z m-12305 47 c0 -8 -19 -13 -24 -6 -3 5 1 9 9 9 8
0 15 -2 15 -3z m12684 -125 c14 -15 50 -46 80 -69 31 -23 56 -44 56 -46 0 -25
-155 107 -175 149 -14 28 -14 30 -1 13 9 -11 27 -32 40 -47z m-12604 45 c0 -8
-19 -13 -24 -6 -3 5 1 9 9 9 8 0 15 -2 15 -3z m12281 -64 c11 0 17 -4 14 -10
-16 -26 -57 14 -54 53 0 7 5 0 11 -15 6 -18 17 -28 29 -28z m76 14 c-3 -3 -12
-4 -19 -1 -8 3 -5 6 6 6 11 1 17 -2 13 -5z m-12277 -30 c0 -8 -19 -13 -24 -6
-3 5 1 9 9 9 8 0 15 -2 15 -3z m11427 -59 c-4 -8 -16 -15 -28 -15 -21 0 -21 0
2 19 26 21 35 20 26 -4z m-11347 -21 c0 -8 -19 -13 -24 -6 -3 5 1 9 9 9 8 0
15 -2 15 -3z m80 -80 c0 -8 -19 -13 -24 -6 -3 5 1 9 9 9 8 0 15 -2 15 -3z
m12470 -29 c0 -8 -4 -15 -10 -15 -5 0 -10 7 -10 15 0 8 5 15 10 15 6 0 10 -7
10 -15z m87 -17 c-3 -7 -5 -2 -5 12 0 14 2 19 5 13 2 -7 2 -19 0 -25z m-12477
-34 c0 -8 -19 -13 -24 -6 -3 5 1 9 9 9 8 0 15 -2 15 -3z m80 -80 c0 -8 -19
-13 -24 -6 -3 5 1 9 9 9 8 0 15 -2 15 -3z m80 -80 c0 -8 -19 -13 -24 -6 -3 5
1 9 9 9 8 0 15 -2 15 -3z m80 -80 c0 -8 -19 -13 -24 -6 -3 5 1 9 9 9 8 0 15
-2 15 -3z m80 -80 c0 -8 -19 -13 -24 -6 -3 5 1 9 9 9 8 0 15 -2 15 -3z m80
-80 c0 -8 -19 -13 -24 -6 -3 5 1 9 9 9 8 0 15 -2 15 -3z m80 -80 c0 -8 -19
-13 -24 -6 -3 5 1 9 9 9 8 0 15 -2 15 -3z m80 -80 c0 -8 -19 -13 -24 -6 -3 5
1 9 9 9 8 0 15 -2 15 -3z m80 -80 c0 -8 -19 -13 -24 -6 -3 5 1 9 9 9 8 0 15
-2 15 -3z m80 -80 c0 -8 -19 -13 -24 -6 -3 5 1 9 9 9 8 0 15 -2 15 -3z m80
-80 c0 -8 -19 -13 -24 -6 -3 5 1 9 9 9 8 0 15 -2 15 -3z m80 -80 c0 -8 -19
-13 -24 -6 -3 5 1 9 9 9 8 0 15 -2 15 -3z m13545 -65 c3 6 11 8 17 5 6 -4 6
-10 -1 -17 -8 -8 -7 -15 4 -27 13 -14 12 -16 -9 -16 -17 0 -23 5 -22 21 1 14
-5 20 -19 19 -16 -1 -21 5 -21 22 l0 24 22 -21 c14 -13 24 -17 29 -10z
m-13465 -15 c0 -8 -19 -13 -24 -6 -3 5 1 9 9 9 8 0 15 -2 15 -3z m9034 -60
c19 -19 21 -34 3 -34 -14 0 -39 35 -30 44 9 8 10 8 27 -10z m-8954 -20 c0 -8
-19 -13 -24 -6 -3 5 1 9 9 9 8 0 15 -2 15 -3z m80 -80 c0 -8 -19 -13 -24 -6
-3 5 1 9 9 9 8 0 15 -2 15 -3z m80 -80 c0 -8 -19 -13 -24 -6 -3 5 1 9 9 9 8 0
15 -2 15 -3z m80 -80 c0 -8 -19 -13 -24 -6 -3 5 1 9 9 9 8 0 15 -2 15 -3z m80
-80 c0 -8 -19 -13 -24 -6 -3 5 1 9 9 9 8 0 15 -2 15 -3z m80 -80 c0 -8 -19
-13 -24 -6 -3 5 1 9 9 9 8 0 15 -2 15 -3z m80 -80 c0 -8 -19 -13 -24 -6 -3 5
1 9 9 9 8 0 15 -2 15 -3z m80 -80 c0 -8 -19 -13 -24 -6 -3 5 1 9 9 9 8 0 15
-2 15 -3z m80 -80 c0 -8 -19 -13 -24 -6 -3 5 1 9 9 9 8 0 15 -2 15 -3z m80
-80 c0 -8 -19 -13 -24 -6 -3 5 1 9 9 9 8 0 15 -2 15 -3z m80 -80 c0 -8 -19
-13 -24 -6 -3 5 1 9 9 9 8 0 15 -2 15 -3z m80 -80 c0 -8 -19 -13 -24 -6 -3 5
1 9 9 9 8 0 15 -2 15 -3z m80 -80 c0 -8 -19 -13 -24 -6 -3 5 1 9 9 9 8 0 15
-2 15 -3z m80 -80 c0 -8 -19 -13 -24 -6 -3 5 1 9 9 9 8 0 15 -2 15 -3z m80
-80 c0 -8 -19 -13 -24 -6 -3 5 1 9 9 9 8 0 15 -2 15 -3z m80 -80 c0 -8 -19
-13 -24 -6 -3 5 1 9 9 9 8 0 15 -2 15 -3z m80 -80 c0 -8 -19 -13 -24 -6 -3 5
1 9 9 9 8 0 15 -2 15 -3z m80 -80 c0 -8 -19 -13 -24 -6 -3 5 1 9 9 9 8 0 15
-2 15 -3z m7503 -22 c16 -18 15 -18 -13 -14 -29 4 -37 12 -23 25 10 11 19 8
36 -11z m57 -32 c0 -5 -2 -10 -4 -10 -3 0 -8 5 -11 10 -3 6 -1 10 4 10 6 0 11
-4 11 -10z m-7480 -26 c0 -8 -19 -13 -24 -6 -3 5 1 9 9 9 8 0 15 -2 15 -3z
m80 -80 c0 -8 -19 -13 -24 -6 -3 5 1 9 9 9 8 0 15 -2 15 -3z m7610 -49 c0 -8
-7 -15 -15 -15 -16 0 -20 12 -8 23 11 12 23 8 23 -8z m-7530 -31 c0 -8 -19
-13 -24 -6 -3 5 1 9 9 9 8 0 15 -2 15 -3z m80 -80 c0 -8 -19 -13 -24 -6 -3 5
1 9 9 9 8 0 15 -2 15 -3z m80 -80 c0 -8 -19 -13 -24 -6 -3 5 1 9 9 9 8 0 15
-2 15 -3z m6960 -71 c0 -22 -43 -63 -66 -63 -21 0 -17 9 16 40 17 16 30 38 30
52 0 18 2 20 10 8 5 -8 10 -25 10 -37z m1170 27 c0 -5 -7 -10 -15 -10 -8 0
-15 5 -15 10 0 6 7 10 15 10 8 0 15 -4 15 -10z m-8050 -36 c0 -8 -19 -13 -24
-6 -3 5 1 9 9 9 8 0 15 -2 15 -3z m6764 -9 c-6 -16 -24 -21 -24 -7 0 11 11 22
21 22 5 0 6 -7 3 -15z m1591 -65 c8 -38 -6 -68 -23 -47 -7 8 -15 28 -18 45 -6
28 -4 32 14 32 14 0 22 -9 27 -30z m-8275 -6 c0 -8 -19 -13 -24 -6 -3 5 1 9 9
9 8 0 15 -2 15 -3z m80 -80 c0 -8 -19 -13 -24 -6 -3 5 1 9 9 9 8 0 15 -2 15
-3z m7771 -9 c-1 -15 -24 -12 -29 3 -3 9 2 13 12 10 10 -1 17 -7 17 -13z
m-7691 -71 c0 -8 -19 -13 -24 -6 -3 5 1 9 9 9 8 0 15 -2 15 -3z m80 -80 c0 -8
-19 -13 -24 -6 -3 5 1 9 9 9 8 0 15 -2 15 -3z m6154 -20 c13 -5 14 -9 5 -20
-15 -18 -35 -18 -42 0 -9 23 7 32 37 20z m-6074 -60 c0 -8 -19 -13 -24 -6 -3
5 1 9 9 9 8 0 15 -2 15 -3z m80 -80 c0 -8 -19 -13 -24 -6 -3 5 1 9 9 9 8 0 15
-2 15 -3z m6850 -84 c0 -11 -6 -20 -13 -20 -19 0 -27 10 -20 26 8 21 33 17 33
-6z m-6770 4 c0 -8 -19 -13 -24 -6 -3 5 1 9 9 9 8 0 15 -2 15 -3z m6710 -24
c0 -5 -7 -10 -16 -10 -8 0 -12 5 -9 10 3 6 10 10 16 10 5 0 9 -4 9 -10z m-222
-48 c2 -7 -6 -12 -17 -12 -21 0 -27 11 -14 24 9 9 26 2 31 -12z m-6408 -8 c0
-8 -19 -13 -24 -6 -3 5 1 9 9 9 8 0 15 -2 15 -3z m80 -80 c0 -8 -19 -13 -24
-6 -3 5 1 9 9 9 8 0 15 -2 15 -3z m80 -80 c0 -8 -19 -13 -24 -6 -3 5 1 9 9 9
8 0 15 -2 15 -3z m80 -80 c0 -8 -19 -13 -24 -6 -3 5 1 9 9 9 8 0 15 -2 15 -3z
m37 -48 c-1 -6 4 -10 11 -8 6 1 11 -4 10 -10 -2 -7 3 -12 10 -10 6 1 11 -4 10
-10 -2 -7 3 -12 10 -10 6 1 11 -4 10 -10 -2 -7 3 -12 10 -10 6 1 11 -4 10 -10
-2 -7 3 -12 10 -10 6 1 11 -4 10 -10 -2 -7 3 -12 10 -10 6 1 11 -4 10 -10 -2
-7 3 -12 10 -10 6 1 11 -4 10 -10 -2 -7 3 -12 10 -10 6 1 11 -4 10 -10 -2 -7
3 -12 9 -10 7 1 12 -4 10 -10 -1 -7 4 -12 10 -11 7 2 12 -3 10 -10 -1 -6 4
-11 10 -10 7 2 12 -3 10 -10 -1 -6 4 -11 10 -10 7 2 12 -3 10 -10 -1 -6 4 -11
10 -10 7 2 12 -3 10 -10 -1 -6 4 -11 11 -9 6 1 11 -4 10 -10 -2 -7 3 -12 10
-10 6 1 11 -4 10 -10 -2 -7 3 -12 10 -10 6 1 11 -4 10 -10 -2 -7 3 -12 10 -10
6 1 11 -4 10 -10 -2 -7 3 -12 10 -10 6 1 11 -4 10 -10 -2 -7 3 -12 10 -10 6 1
11 -4 10 -10 -2 -7 3 -12 10 -10 6 1 11 -4 10 -10 -2 -7 3 -12 10 -10 6 1 11
-4 10 -10 -2 -7 3 -12 10 -10 6 1 11 -4 10 -10 -2 -7 3 -12 10 -10 6 1 11 -4
10 -10 -2 -7 3 -12 10 -10 6 1 11 -4 10 -10 -2 -7 3 -12 10 -10 6 1 12 0 12
-2 0 -25 -53 21 -274 243 -142 142 -251 258 -242 258 8 0 14 -5 13 -11z m4363
-416 c0 -5 -4 -10 -10 -10 -5 0 -10 5 -10 10 0 6 5 10 10 10 6 0 10 -4 10 -10z
m218 -64 c-8 -14 -17 -17 -41 -12 -43 9 -49 18 -32 44 15 21 16 21 49 4 28
-14 32 -20 24 -36z m-3998 -92 c0 -8 -19 -13 -24 -6 -3 5 1 9 9 9 8 0 15 -2
15 -3z m80 -80 c0 -8 -19 -13 -24 -6 -3 5 1 9 9 9 8 0 15 -2 15 -3z m3830 -40
c0 -8 -4 -12 -10 -9 -5 3 -10 10 -10 16 0 5 5 9 10 9 6 0 10 -7 10 -16z
m-3750 -40 c0 -8 -19 -13 -24 -6 -3 5 1 9 9 9 8 0 15 -2 15 -3z m3620 -16 c-1
-7 -7 -26 -14 -43 -12 -26 -15 -28 -21 -12 -8 20 9 67 25 67 5 0 10 -6 10 -12z
m-3540 -64 c0 -8 -19 -13 -24 -6 -3 5 1 9 9 9 8 0 15 -2 15 -3z m80 -80 c0 -8
-19 -13 -24 -6 -3 5 1 9 9 9 8 0 15 -2 15 -3z m3288 -27 c5 -24 -15 -21 -28 4
-10 18 -9 20 7 17 10 -2 19 -11 21 -21z m-3208 -53 c0 -8 -19 -13 -24 -6 -3 5
1 9 9 9 8 0 15 -2 15 -3z m80 -80 c0 -8 -19 -13 -24 -6 -3 5 1 9 9 9 8 0 15
-2 15 -3z m80 -80 c0 -8 -19 -13 -24 -6 -3 5 1 9 9 9 8 0 15 -2 15 -3z m3104
-19 c4 -10 -1 -15 -14 -15 -11 0 -20 7 -20 15 0 8 6 15 14 15 8 0 16 -7 20
-15z m-3024 -61 c0 -8 -19 -13 -24 -6 -3 5 1 9 9 9 8 0 15 -2 15 -3z m3790
-77 c0 -7 -7 -22 -15 -33 -14 -18 -15 -17 -11 11 5 38 4 35 16 35 6 0 10 -6
10 -13z m-3710 -3 c0 -8 -19 -13 -24 -6 -3 5 1 9 9 9 8 0 15 -2 15 -3z m3840
-138 c-4 -4 -14 2 -20 14 -10 18 -9 28 1 48 l14 25 7 -39 c3 -21 2 -43 -2 -48z
m-3760 58 c0 -8 -19 -13 -24 -6 -3 5 1 9 9 9 8 0 15 -2 15 -3z m80 -80 c0 -8
-19 -13 -24 -6 -3 5 1 9 9 9 8 0 15 -2 15 -3z m6151 -110 c191 -14 226 -19
225 -32 -1 -10 11 -18 32 -23 18 -4 36 -9 39 -13 9 -9 -36 -8 -322 11 -198 12
-419 16 -928 17 -575 0 -666 2 -653 14 11 11 91 16 402 24 214 5 445 12 514
16 180 10 431 5 691 -14z m524 -74 c107 -13 147 -36 45 -26 -36 3 -107 9 -158
12 -51 4 -95 11 -98 15 -7 12 101 11 211 -1z m-1922 -37 c-7 -2 -21 -2 -30 0
-10 3 -4 5 12 5 17 0 24 -2 18 -5z m330 -180 c18 -17 19 -17 28 0 14 25 92 25
87 0 -2 -12 -13 -18 -30 -18 -23 1 -27 -4 -30 -39 -3 -31 0 -40 14 -44 25 -6
23 -42 -2 -42 -17 0 -20 -7 -20 -50 0 -27 3 -49 8 -49 24 4 42 -3 42 -16 0
-22 -76 -21 -84 1 -6 16 -8 16 -24 0 -10 -9 -25 -16 -32 -16 -18 0 -50 30 -50
47 0 17 15 17 44 -2 23 -15 24 -15 29 12 3 15 1 36 -4 47 -15 33 -36 67 -48
79 -16 16 -13 68 6 89 20 23 41 23 66 1z m211 1 c3 -9 6 -25 6 -36 0 -20 -1
-20 -19 -4 -27 24 -41 12 -41 -34 0 -43 17 -62 32 -36 17 31 23 15 26 -74 2
-58 -1 -90 -8 -90 -5 0 -10 22 -10 49 0 30 -5 53 -14 60 -19 16 -29 0 -37 -64
-5 -36 -7 -17 -7 65 -1 160 3 180 38 180 16 0 30 -7 34 -16z m-1816 -64 c5
-98 -1 -110 -48 -110 -45 0 -43 -5 -40 100 2 71 9 82 55 78 30 -3 30 -4 33
-68z m1874 -167 c24 -29 30 -3 41 189 2 20 6 40 10 44 8 9 8 7 8 -111 0 -61 3
-82 9 -65 4 14 8 60 9 103 1 44 5 77 11 77 12 0 13 -55 3 -192 -3 -54 -10 -95
-14 -92 -5 3 -9 22 -9 42 -1 33 -2 35 -12 17 -12 -21 -44 -55 -52 -55 -25 0
-47 201 -29 260 5 16 9 -17 11 -89 1 -66 7 -121 14 -128z m216 225 c9 -9 18
-9 38 1 23 10 30 9 47 -6 18 -17 19 -26 14 -125 -7 -109 -19 -148 -48 -148
-37 0 -51 34 -47 117 3 69 1 78 -14 75 -12 -2 -18 6 -20 30 -3 29 -7 33 -35
36 -32 3 -40 11 -26 25 11 12 78 8 91 -5z m1363 -283 c5 -71 13 -141 18 -155
5 -14 10 -49 10 -79 1 -29 6 -61 11 -71 6 -10 7 -25 4 -33 -3 -8 -1 -50 5 -93
15 -113 40 -386 51 -546 12 -186 33 -258 70 -238 13 7 25 3 46 -15 19 -16 32
-21 39 -15 12 10 25 4 25 -11 0 -5 -7 -6 -15 -3 -22 9 -18 -14 5 -26 11 -6 20
-18 21 -28 0 -10 3 -12 6 -4 17 42 48 -31 39 -95 -8 -61 -44 -107 -101 -128
-25 -10 -45 -24 -45 -31 0 -8 -4 -14 -10 -14 -5 0 -10 7 -10 15 0 8 -7 15 -15
15 -14 0 -15 -31 -10 -265 4 -170 3 -265 -4 -265 -5 0 -16 -3 -25 -6 -13 -5
-15 18 -15 178 -1 219 -8 434 -21 618 -5 74 -12 180 -15 235 -4 55 -22 244
-41 420 -19 176 -39 369 -45 428 -5 60 -14 127 -19 150 -5 23 -9 114 -9 202
l1 160 19 -85 c11 -47 24 -143 30 -215z m-1166 264 c8 -26 0 -35 -18 -21 -10
9 -17 8 -25 0 -17 -17 -15 -26 18 -92 29 -58 31 -94 9 -137 -11 -21 -55 -14
-61 9 -9 32 2 45 22 27 15 -14 18 -14 30 0 11 13 11 23 0 56 -8 22 -22 49 -32
61 -18 21 -23 55 -12 96 9 30 60 31 69 1z m190 -111 c-7 -145 -10 -162 -25
-153 -17 10 3 285 21 285 6 0 7 -49 4 -132z m187 109 c4 -7 9 -16 11 -22 2 -5
16 -2 30 8 l27 17 -1 -107 c-1 -148 -17 -191 -18 -50 -1 59 -5 107 -9 107 -5
0 -16 -6 -25 -12 -13 -10 -17 -33 -19 -108 l-3 -95 -50 0 -50 0 4 78 c3 67 1
80 -15 92 -28 20 -34 10 -35 -63 -1 -79 -11 -123 -23 -104 -4 7 -5 28 -2 45 3
18 6 74 8 125 1 50 5 92 8 92 4 0 19 -17 33 -37 l27 -38 0 41 c0 22 3 43 6 47
10 9 88 -3 96 -16z m-264 -17 c5 0 12 7 16 15 12 32 26 13 26 -37 0 -95 -13
-218 -22 -218 -6 0 -8 43 -6 103 3 96 2 102 -17 102 -14 0 -22 -9 -26 -30 -5
-21 -7 -10 -7 35 -1 56 0 63 12 48 7 -10 18 -18 24 -18z m424 -87 c4 -137 -6
-173 -47 -165 -30 5 -28 -2 -26 137 3 137 5 145 41 145 l28 0 4 -117z m86 111
c17 -5 22 -13 21 -38 l0 -31 -16 23 c-15 21 -17 22 -34 6 -25 -22 -33 -13 -18
20 13 28 14 29 47 20z m-3133 -33 c7 -12 -31 -25 -45 -16 -5 3 -10 10 -10 16
0 12 47 12 55 0z m733 -16 c2 -2 -4 -20 -14 -41 l-16 -39 -15 34 c-18 43 -11
65 19 55 13 -3 24 -8 26 -9z m-310 -7 c5 -18 0 -24 -29 -37 -25 -11 -33 -11
-39 -1 -4 7 -16 9 -29 5 -14 -4 -21 -2 -21 6 0 7 -6 5 -13 -6 -16 -21 -37 -13
-37 14 0 10 2 20 4 22 8 8 161 4 164 -3z m92 -10 c0 -10 0 -21 0 -25 0 -5 -6
-8 -12 -8 -7 0 -12 8 -12 18 1 10 -5 17 -17 17 -10 0 -20 4 -23 9 -3 5 10 9
29 8 27 -1 35 -5 35 -19z m2603 -48 c36 -67 38 -146 5 -159 -25 -10 -48 3 -48
25 0 10 7 13 25 8 20 -5 25 -2 30 18 6 24 0 44 -35 108 -21 39 -24 50 -12 50
4 0 20 -22 35 -50z m-3145 19 c-2 -6 -8 -10 -13 -10 -5 0 -11 4 -13 10 -2 6 4
11 13 11 9 0 15 -5 13 -11z m97 1 c4 -6 -9 -10 -32 -9 -34 1 -35 2 -13 9 35
11 38 11 45 0z m395 -5 c0 -8 -4 -15 -10 -15 -5 0 -10 7 -10 15 0 8 5 15 10
15 6 0 10 -7 10 -15z m354 -11 c67 -10 56 -24 -19 -24 -51 0 -65 3 -65 15 0
17 15 18 84 9z m1446 -15 c-7 -11 -14 -18 -17 -15 -8 8 5 36 17 36 7 0 7 -6 0
-21z m317 -106 c-2 -21 -4 -6 -4 32 0 39 2 55 4 38 2 -18 2 -50 0 -70z m-353
43 c-6 -27 17 -46 55 -46 12 0 21 -7 21 -16 0 -12 -10 -14 -47 -12 -46 3 -48
4 -51 36 -4 39 3 62 18 62 6 0 8 -10 4 -24z m-993 -134 c6 -50 -1 -59 -57 -68
l-40 -6 -12 52 c-7 28 -12 56 -12 61 0 6 25 9 58 7 l57 -3 6 -43z m17 -129 c3
-27 0 -33 -17 -33 -39 0 -49 -23 -43 -99 3 -42 1 -71 -5 -71 -22 0 -48 199
-29 228 5 8 23 12 49 10 39 -3 42 -5 45 -35z m562 -157 c0 -5 -7 -1 -15 10 -8
10 -14 24 -14 29 0 6 6 1 14 -9 8 -11 15 -24 15 -30z m1100 29 c7 -9 11 -18 8
-20 -9 -10 -38 7 -38 21 0 18 14 18 30 -1z m228 -9 c3 -12 0 -16 -8 -11 -7 4
-17 1 -22 -6 -7 -11 -11 -11 -15 -1 -2 6 -10 12 -18 12 -7 0 -18 7 -26 16 -11
13 -7 15 37 12 38 -2 50 -7 52 -22z m-1398 -32 c0 -21 -4 -21 -120 -20 -89 1
-120 4 -120 14 0 8 18 12 58 12 31 0 63 4 71 9 8 5 36 9 63 8 42 -2 48 -5 48
-23z m-552 -230 c6 -44 14 -100 17 -126 l6 -47 52 -3 52 -3 12 -94 c11 -92 29
-383 58 -946 8 -159 18 -301 22 -314 5 -21 3 -23 -15 -19 -11 3 -39 2 -62 -2
-38 -7 -42 -5 -50 16 -6 15 -18 24 -31 24 -11 0 -19 3 -17 8 2 4 15 29 28 57
l23 50 -6 330 c-4 181 -14 413 -22 515 -15 183 -31 315 -34 273 0 -12 -5 -24
-10 -27 -5 -3 -8 -56 -6 -116 3 -117 -9 -149 -20 -52 -4 31 -12 73 -17 92 -6
19 -13 42 -15 50 -4 13 -7 12 -18 -3 -20 -28 -25 -10 -36 130 -5 70 -12 163
-16 206 -5 66 -4 77 10 77 10 0 18 -13 22 -40 10 -57 23 -50 24 13 1 108 1
106 21 66 9 -20 22 -72 28 -115z m2098 47 c1 -59 -10 -50 -21 18 -6 34 -4 42
6 39 9 -3 14 -23 15 -57z m-624 -73 c9 -4 20 -24 24 -42 7 -40 21 -46 110 -46
46 0 63 -4 68 -15 3 -9 18 -15 39 -15 41 0 49 -7 36 -32 -7 -14 -7 -23 1 -34
7 -7 10 -21 6 -29 -4 -12 -25 -15 -98 -16 -51 0 -129 -4 -173 -9 -44 -4 -81
-7 -83 -5 -5 4 -8 255 -4 260 6 6 51 -4 74 -17z m-149 -60 c3 -24 9 -61 12
-83 7 -43 -9 -100 -25 -90 -5 3 -9 53 -8 115 1 111 11 135 21 58z m787 -79 c0
-6 -4 -7 -10 -4 -5 3 -10 11 -10 16 0 6 5 7 10 4 6 -3 10 -11 10 -16z m0 -39
c0 -5 -9 -10 -20 -10 -11 0 -20 5 -20 10 0 6 9 10 20 10 11 0 20 -4 20 -10z
m-4155 -130 c-3 -5 -12 -7 -20 -3 -21 7 -19 13 6 13 11 0 18 -4 14 -10z m93
-5 c7 -7 -7 -35 -17 -35 -6 0 -8 7 -5 15 5 11 -1 15 -20 15 -14 0 -26 5 -26
11 0 11 57 6 68 -6z m150 -19 c2 -15 1 -35 -3 -44 -9 -25 -25 4 -25 46 0 41
23 39 28 -2z m3885 -106 c4 -33 13 -57 24 -65 16 -12 18 -28 16 -130 -1 -79
-6 -121 -15 -132 -7 -9 -12 -24 -10 -35 2 -10 -4 -21 -12 -24 -9 -3 -16 -15
-16 -26 0 -17 -6 -19 -72 -16 -45 2 -71 7 -68 13 3 6 21 9 41 8 32 -1 38 3 56
35 22 39 19 66 -11 91 -9 7 -16 21 -16 30 0 9 -4 21 -10 27 -13 13 -19 181 -8
221 6 22 13 30 23 27 19 -8 32 25 15 36 -9 6 -8 10 5 17 27 16 51 -16 58 -77z
m-4553 55 c0 -8 -4 -15 -10 -15 -5 0 -10 7 -10 15 0 8 5 15 10 15 6 0 10 -7
10 -15z m2391 -78 c-13 -13 -15 31 -3 60 5 14 8 10 10 -16 2 -18 -1 -38 -7
-44z m2379 57 c0 -8 -5 -12 -10 -9 -6 4 -8 11 -5 16 9 14 15 11 15 -7z m199
-144 c1 -52 -2 -70 -9 -60 -5 8 -9 62 -9 120 1 86 3 97 10 60 4 -25 8 -79 8
-120z m-11387 88 c7 -66 2 -148 -9 -158 -4 -5 -27 -11 -49 -15 l-42 -6 -4 83
c-3 46 -1 87 4 93 4 5 8 19 8 32 0 20 5 23 44 23 l43 0 5 -52z m492 -5 c-8
-65 -34 -88 -115 -98 -35 -4 -82 -8 -104 -9 l-40 -1 -3 78 -3 77 135 0 136 0
-6 -47z m10698 -12 c2 -16 1 -37 -3 -47 -9 -22 -9 -22 -15 34 -6 46 11 59 18
13z m-2330 -16 c-6 -35 4 -66 30 -94 16 -18 23 -40 26 -85 l4 -61 -19 25 c-19
24 -47 93 -48 117 0 6 -4 15 -8 19 -9 9 -9 88 0 97 13 14 20 6 15 -18z m1758
5 c0 -5 -4 -10 -10 -10 -5 0 -10 5 -10 10 0 6 5 10 10 10 6 0 10 -4 10 -10z
m197 -52 c-2 -13 -4 -3 -4 22 0 25 2 35 4 23 2 -13 2 -33 0 -45z m-2641 -6
c-10 -2 -23 1 -29 7 -6 6 -18 11 -26 11 -23 0 -45 16 -38 28 4 5 28 -1 59 -16
38 -19 48 -27 34 -30z m-5261 13 c0 -5 -10 -11 -22 -13 -16 -2 -23 2 -23 13 0
11 7 15 23 13 12 -2 22 -7 22 -13z m513 -8 c3 -12 -3 -17 -22 -17 -25 0 -35
18 -19 34 12 12 38 2 41 -17z m4802 -27 c12 -8 11 -10 -7 -10 -13 0 -23 5 -23
10 0 13 11 13 30 0z m-614 -41 c-3 -17 -6 -39 -7 -48 -1 -9 -5 0 -10 19 -9 39
-5 60 12 60 8 0 9 -11 5 -31z m3569 -38 c-20 -20 -26 -10 -19 29 l7 32 13 -23
c11 -20 10 -26 -1 -38z m-2895 4 c0 -54 -16 -60 -23 -7 -5 40 -1 52 14 52 5 0
9 -20 9 -45z m2075 -4 c-3 -6 -11 -11 -17 -11 -6 0 -6 6 2 15 14 17 26 13 15
-4z m1025 -16 c0 -8 -4 -15 -10 -15 -5 0 -10 7 -10 15 0 8 5 15 10 15 6 0 10
-7 10 -15z m9 -167 c1 -29 -3 -38 -15 -38 -14 0 -16 8 -10 46 3 26 7 61 7 78
1 29 2 28 10 -9 4 -22 8 -57 8 -77z m-1456 92 l47 0 0 -109 c0 -106 -1 -110
-22 -113 -13 -2 -102 -1 -198 2 l-175 5 -1 100 c0 55 4 106 9 112 7 10 45 12
151 8 77 -3 162 -5 189 -5z m641 -90 c14 -13 -100 -23 -183 -16 -92 9 -121 15
-121 28 0 12 290 0 304 -12z m-10589 -3 c10 -8 15 -19 11 -25 -10 -17 -26 -15
-26 4 0 9 -6 14 -12 11 -7 -2 -13 -13 -13 -24 0 -12 -3 -25 -7 -29 -5 -4 -8
-2 -8 5 0 8 -8 11 -20 8 -17 -4 -20 0 -20 29 0 33 1 34 38 34 21 0 46 -6 57
-13z m2423 1 c18 -18 15 -88 -4 -109 -27 -30 -54 -8 -54 46 0 24 3 50 6 59 7
19 35 21 52 4z m132 -34 c0 -8 -5 -12 -10 -9 -6 4 -8 11 -5 16 9 14 15 11 15
-7z m60 1 c0 -8 -4 -15 -10 -15 -5 0 -10 7 -10 15 0 8 5 15 10 15 6 0 10 -7
10 -15z m-3 -51 c7 -19 -9 -37 -30 -32 -11 2 -12 9 -6 26 10 26 27 29 36 6z
m4427 -16 c31 -44 10 -138 -30 -138 -8 0 -24 10 -35 21 -17 17 -20 30 -16 65
8 72 49 98 81 52z m4357 -11 c-8 -8 -11 -7 -11 4 0 20 13 34 18 19 3 -7 -1
-17 -7 -23z m-4191 -27 l20 -20 -25 0 c-18 0 -25 5 -25 20 0 11 2 20 5 20 3 0
14 -9 25 -20z m60 -33 c0 -30 -2 -56 -5 -59 -3 -2 -18 -3 -34 0 -26 4 -27 6
-17 28 6 13 19 27 28 30 14 4 16 10 8 23 -5 10 -6 21 -3 25 16 16 23 2 23 -47z
m2796 3 c23 0 16 -36 -11 -54 -34 -22 -35 -21 -35 25 0 33 3 40 16 35 9 -3 22
-6 30 -6z m-2879 -47 c-3 -10 -5 -4 -5 12 0 17 2 24 5 18 2 -7 2 -21 0 -30z
m1040 21 c-3 -3 -12 -4 -19 -1 -8 3 -5 6 6 6 11 1 17 -2 13 -5z m3186 -39 c9
-19 13 -35 7 -35 -11 0 -40 40 -40 57 0 24 16 13 33 -22z m-9383 1 c243 -31
361 -70 334 -112 -14 -23 -27 -30 -99 -49 -33 -10 -69 -20 -80 -25 -74 -29
-187 -50 -255 -49 -82 2 -107 -6 -155 -52 -21 -19 -68 -41 -154 -68 l-124 -40
-51 16 c-28 8 -69 21 -91 28 l-40 13 -3 111 -3 111 110 0 109 0 55 50 c30 28
68 57 83 65 38 20 211 20 364 1z m560 -38 c0 -4 -8 0 -18 10 -11 9 -17 21 -14
26 5 9 32 -21 32 -36z m4640 -110 c0 -34 -4 -48 -14 -48 -18 0 -28 64 -15 98
14 37 29 12 29 -50z m-700 26 c175 -30 399 -101 453 -145 14 -10 55 -57 92
-104 65 -83 97 -105 156 -105 9 0 21 -6 27 -13 14 -17 13 -122 -1 -140 -7 -8
-46 -22 -87 -31 -41 -9 -109 -23 -150 -32 -115 -26 -109 -28 -153 51 -65 119
-128 173 -255 219 -113 41 -200 51 -266 32 -66 -20 -103 -49 -151 -122 -20
-30 -43 -58 -50 -60 -7 -3 -31 6 -54 20 -49 31 -51 32 -51 5 0 -18 -2 -20 -15
-9 -9 7 -14 19 -11 26 6 16 -36 47 -124 92 -36 19 -74 42 -86 53 -11 10 -26
19 -34 19 -22 0 -220 103 -214 111 3 5 85 9 182 8 105 0 189 4 206 11 15 5 58
35 94 65 35 29 81 58 101 64 46 13 279 4 391 -15z m-4220 -146 c0 -11 6 -15
21 -11 18 5 20 3 15 -15 -4 -12 -3 -29 2 -39 6 -10 13 -40 17 -68 5 -42 4 -47
-6 -30 -7 11 -16 24 -21 30 -35 42 -88 104 -116 132 -33 34 -35 58 -4 49 10
-3 23 -1 31 3 18 11 61 -25 61 -51z m1398 31 c14 0 13 -2 -3 -8 -28 -12 65
-26 102 -16 16 4 44 7 63 6 19 -1 42 3 50 9 13 9 13 11 0 20 -8 5 -20 8 -26 6
-6 -2 -17 0 -25 6 -9 6 33 8 126 4 77 -3 144 -6 148 -6 5 0 5 -5 1 -11 -5 -8
-34 -9 -95 -4 -65 5 -89 3 -89 -5 0 -6 12 -10 28 -9 15 1 42 -1 60 -5 51 -12
36 -35 -43 -69 -38 -16 -82 -38 -97 -48 -30 -22 -51 -24 -78 -7 -24 16 -41 1
-18 -16 16 -12 16 -14 -7 -26 -20 -11 -27 -11 -41 0 -15 13 -15 15 1 26 14 11
13 14 -10 32 -15 12 -33 18 -46 15 -17 -5 -20 -12 -17 -44 2 -22 0 -39 -4 -39
-5 0 -7 51 -7 113 1 61 3 104 6 95 2 -10 12 -18 21 -19z m4097 21 c3 -5 1 -10
-4 -10 -6 0 -11 5 -11 10 0 6 2 10 4 10 3 0 8 -4 11 -10z m-3014 -37 c1 -10 1
-21 0 -25 0 -5 4 -8 9 -8 6 0 10 -6 10 -14 0 -8 4 -16 9 -18 16 -5 23 -68 9
-69 -23 -2 -41 2 -54 14 -7 7 -29 23 -48 37 -20 14 -39 35 -42 48 -3 12 -14
23 -23 23 -14 1 -13 2 2 6 9 2 17 9 17 14 0 5 25 9 55 9 45 0 55 -3 56 -17z
m217 0 c-10 -2 -28 -2 -40 0 -13 2 -5 4 17 4 22 1 32 -1 23 -4z m110 0 c-10
-2 -28 -2 -40 0 -13 2 -5 4 17 4 22 1 32 -1 23 -4z m127 -13 c-3 -5 -12 -10
-20 -10 -8 0 -17 5 -20 10 -4 6 5 10 20 10 15 0 24 -4 20 -10z m217 0 c-13 -6
-38 -6 -60 -1 -35 8 -33 9 23 9 46 1 55 -1 37 -8z m-1242 -25 c10 -12 10 -21
1 -41 -13 -30 -35 -27 -39 5 -7 46 14 65 38 36z m830 -12 c9 -15 11 -15 7 -2
-5 15 -1 15 31 6 20 -6 40 -16 44 -21 4 -6 13 -5 23 4 10 8 55 16 115 19 l100
6 0 -33 0 -33 68 3 c59 3 67 5 67 23 0 28 54 34 72 8 11 -14 16 -15 22 -5 6 9
26 3 84 -25 72 -36 77 -40 77 -70 0 -25 -4 -31 -15 -27 -8 4 -15 1 -15 -5 0
-6 -11 -11 -24 -11 -18 0 -25 6 -28 23 -2 13 -10 22 -20 22 -9 0 -20 3 -23 7
-13 12 -30 -16 -31 -50 -1 -25 2 -30 12 -21 7 6 25 9 41 7 24 -3 28 -8 31 -39
3 -31 0 -37 -15 -35 -10 0 -17 -5 -15 -11 1 -8 -9 -13 -28 -13 -16 0 -30 -4
-30 -10 0 -5 -20 -10 -45 -10 -29 0 -45 -4 -46 -12 0 -10 -2 -10 -6 0 -7 18
-143 17 -143 -2 0 -16 -47 -27 -80 -19 -13 4 -25 1 -30 -8 -7 -11 -12 -10 -27
4 -21 19 -63 13 -63 -9 0 -16 -2 -16 -23 -8 -13 5 -13 9 -2 31 15 28 71 58 80
43 8 -13 67 -41 73 -35 7 7 -29 34 -45 35 -16 0 -18 20 -3 20 6 0 24 -7 39
-15 29 -15 101 -10 101 6 0 5 24 9 54 9 35 0 58 5 66 15 20 24 2 35 -61 35
-37 0 -59 4 -59 11 0 7 -10 9 -27 5 -48 -12 -143 -15 -149 -5 -3 5 11 9 30 9
20 0 36 5 36 10 0 6 -4 10 -9 10 -5 0 -8 12 -8 26 0 30 -23 57 -30 37 -3 -7
-21 -13 -41 -13 -21 0 -52 -4 -70 -9 -29 -9 -32 -7 -32 11 0 18 4 20 40 14 35
-5 40 -4 40 13 0 28 -7 30 -78 20 -57 -8 -66 -7 -93 13 -16 12 -29 28 -29 35
0 7 -9 13 -20 13 -11 0 -20 4 -20 9 0 4 27 9 59 10 47 1 62 -3 71 -16z m-117
-157 c8 8 65 -34 119 -89 26 -27 36 -43 28 -45 -8 -3 -21 5 -31 17 -9 11 -22
21 -28 21 -7 0 -14 7 -17 15 -4 8 -13 15 -20 15 -8 0 -29 15 -47 33 -18 17
-44 39 -57 48 -15 10 -21 20 -16 28 6 9 16 4 35 -18 15 -17 31 -28 34 -25z
m5187 40 c-7 -14 -90 -14 -90 0 0 8 17 11 48 10 26 0 45 -5 42 -10z m60 -6 c0
-5 -7 -10 -16 -10 -8 0 -12 5 -9 10 3 6 10 10 16 10 5 0 9 -4 9 -10z m35 0 c3
-5 -1 -10 -9 -10 -9 0 -16 5 -16 10 0 6 4 10 9 10 6 0 13 -4 16 -10z m1268
-49 c-10 -37 -53 -64 -148 -91 -73 -21 -76 -19 -20 9 33 17 69 30 80 31 11 0
35 16 54 35 38 40 41 42 34 16z m-6350 -27 c-5 -14 -53 -26 -53 -13 0 5 10 19
21 30 16 16 23 18 29 9 5 -7 6 -19 3 -26z m3867 -9 c15 -3 30 -12 32 -18 9
-25 -10 -199 -22 -207 -8 -5 -6 -9 7 -14 17 -7 17 -8 0 -18 -14 -7 -23 -6 -36
6 -10 9 -22 16 -28 16 -6 0 -13 41 -17 97 -6 83 -5 102 11 134 10 21 19 32 21
24 2 -7 16 -16 32 -20z m-3045 5 c3 -5 2 -10 -4 -10 -5 0 -13 5 -16 10 -3 6
-2 10 4 10 5 0 13 -4 16 -10z m5125 -20 c0 -5 6 -7 13 -4 17 6 42 -22 28 -30
-14 -9 -223 -43 -352 -58 -76 -9 -232 -12 -471 -11 -348 2 -358 1 -358 -18 0
-10 -5 -19 -11 -19 -6 0 -3 -7 5 -16 34 -34 10 -104 -35 -104 -11 0 -22 7 -26
16 -5 15 -7 15 -15 0 -11 -19 -51 -21 -66 -3 -6 7 -12 30 -14 52 l-4 40 -15
-50 c-10 -32 -22 -51 -34 -54 -16 -3 -17 2 -11 40 4 24 11 48 17 55 7 9 4 14
-11 19 -28 9 -49 -10 -32 -27 29 -29 6 -98 -33 -98 -32 0 -45 26 -45 88 0 56
13 73 56 72 16 0 46 2 67 4 20 2 39 0 42 -5 3 -4 17 -3 30 3 21 9 29 8 45 -7
11 -10 20 -16 20 -12 0 3 3 12 6 21 7 19 -23 24 -170 31 -60 2 -111 7 -114 9
-3 3 -18 -6 -34 -19 -18 -15 -42 -25 -61 -25 l-32 0 40 25 c22 13 45 25 51 25
6 0 21 11 33 24 l22 24 537 1 c295 0 598 5 672 9 197 13 260 13 260 2z m-2351
-57 c0 -42 -3 -52 -9 -38 -12 28 -12 95 0 95 6 0 10 -25 9 -57z m-2746 17 c3
-11 1 -20 -4 -20 -5 0 -9 9 -9 20 0 11 2 20 4 20 2 0 6 -9 9 -20z m3332 -20
l20 -9 -20 0 c-11 0 -27 4 -35 9 -13 9 -13 10 0 9 8 0 24 -4 35 -9z m-3625
-30 c0 -19 -6 -20 -82 -18 -47 1 -64 3 -40 5 25 3 45 10 49 19 3 8 19 14 39
14 27 0 34 -4 34 -20z m3450 0 c0 -5 -2 -10 -4 -10 -3 0 -8 5 -11 10 -3 6 -1
10 4 10 6 0 11 -4 11 -10z m-3140 -19 c0 -5 -7 -14 -15 -21 -13 -10 -15 -9
-15 9 0 12 6 21 15 21 8 0 15 -4 15 -9z m-2068 -72 c134 -39 293 -86 353 -104
61 -19 182 -55 270 -80 88 -26 232 -68 320 -95 88 -26 210 -62 270 -80 61 -18
166 -49 235 -70 69 -21 140 -41 157 -45 18 -4 36 -11 39 -17 8 -12 -8 -11
-521 17 -148 8 -358 19 -465 25 -639 33 -782 41 -847 46 l-73 6 0 234 c0 148
4 234 10 234 5 0 119 -32 252 -71z m1828 51 c0 -11 -4 -20 -10 -20 -5 0 -10 9
-10 20 0 11 5 20 10 20 6 0 10 -9 10 -20z m-550 -29 c0 -4 -3 -11 -7 -14 -9
-9 -33 12 -33 30 0 11 4 11 20 3 11 -6 20 -14 20 -19z m1985 -31 c3 -5 1 -10
-4 -10 -6 0 -11 5 -11 10 0 6 2 10 4 10 3 0 8 -4 11 -10z m1955 -11 c0 -5 -11
-9 -25 -9 -26 0 -34 15 -12 23 16 5 37 -3 37 -14z m2205 -15 c-11 -8 -29 -21
-40 -28 -17 -12 -5 -15 98 -21 64 -4 117 -10 117 -14 0 -3 -23 -16 -51 -28
-37 -17 -50 -27 -45 -38 4 -11 -1 -15 -20 -15 -14 0 -22 4 -19 10 8 12 -15 13
-34 1 -7 -5 -10 -14 -6 -21 4 -6 0 -19 -8 -28 -9 -10 -20 -29 -26 -42 l-10
-25 0 28 c-1 44 -21 21 -21 -24 0 -36 -2 -40 -20 -34 -22 7 -27 -7 -7 -23 14
-12 52 10 39 22 -4 4 5 5 21 1 23 -6 27 -4 27 14 0 12 6 21 14 21 21 0 7 -42
-16 -47 -10 -3 -18 -14 -18 -25 0 -17 5 -19 48 -12 26 3 62 18 80 31 33 25 34
25 52 5 22 -23 25 -79 14 -208 l-6 -82 -82 -7 c-44 -4 -93 -9 -109 -10 -35 -3
-44 11 -22 35 24 26 16 74 -12 78 -15 2 -23 -2 -23 -12 0 -8 -9 -20 -20 -26
-15 -8 -18 -17 -13 -40 3 -17 4 -30 2 -30 -2 -1 -120 -3 -261 -6 l-257 -6 -3
29 -3 28 -100 -2 c-281 -7 -471 -16 -477 -21 -3 -4 -8 -16 -10 -27 -2 -11 -13
-21 -25 -23 -20 -3 -21 0 -16 32 8 48 -3 83 -31 102 -22 14 -27 14 -54 0 -39
-20 -58 -65 -44 -106 10 -28 9 -30 -12 -30 -21 0 -23 3 -18 48 3 36 0 53 -15
71 -27 33 -70 31 -101 -5 -21 -24 -24 -35 -19 -76 6 -44 4 -48 -14 -48 -19 0
-20 4 -14 41 17 102 -68 150 -123 69 -22 -33 -23 -50 -7 -93 7 -17 -39 -27
-132 -27 -58 0 -78 10 -53 25 18 11 10 43 -16 64 -34 27 -54 27 -47 1 4 -15 0
-20 -14 -20 -10 0 -24 -5 -31 -12 -18 -18 -27 -1 -14 27 9 20 9 25 -3 25 -8 0
-22 -11 -30 -24 -21 -31 -6 -63 30 -68 14 -2 25 -7 25 -12 0 -10 -737 -9 -752
0 -5 3 -8 115 -8 250 l0 244 26 10 c14 6 46 10 72 10 26 0 118 9 205 20 108
13 214 19 333 19 96 -1 177 1 180 4 2 2 -19 13 -47 23 -29 11 -54 25 -57 32
-6 21 80 5 148 -27 76 -36 62 -36 1425 -3 l340 8 65 32 c70 34 110 43 75 16z
m-2375 -41 c0 -16 -12 -16 -45 -1 -25 11 -30 19 -19 30 9 10 64 -16 64 -29z
m-3680 23 c0 -11 -19 -15 -25 -6 -3 5 1 10 9 10 9 0 16 -2 16 -4z m740 -16 c0
-5 -4 -10 -10 -10 -5 0 -10 5 -10 10 0 6 5 10 10 10 6 0 10 -4 10 -10z m1069
-131 c-50 -7 -65 -3 -49 15 8 10 19 11 52 2 l42 -11 -45 -6z m4331 -29 c0 -5
-5 -10 -11 -10 -5 0 -7 5 -4 10 3 6 8 10 11 10 2 0 4 -4 4 -10z m-3877 -37
c-7 -2 -19 -2 -25 0 -7 3 -2 5 12 5 14 0 19 -2 13 -5z m-567 -19 c-3 -9 -6
-20 -6 -25 0 -5 -4 -9 -10 -9 -11 0 -14 33 -3 43 12 13 25 7 19 -9z m4524 7
c0 -12 -20 -25 -27 -18 -7 7 6 27 18 27 5 0 9 -4 9 -9z m-4480 -46 c0 -30 3
-35 24 -35 13 0 26 6 29 14 5 12 23 18 82 28 11 2 22 6 25 9 3 4 15 9 28 13
22 7 22 7 20 -91 0 -54 -3 -83 -5 -65 -7 54 -23 36 -23 -27 0 -33 -4 -62 -9
-65 -10 -6 -97 30 -106 43 -3 5 -14 7 -24 4 -23 -6 -35 23 -25 61 5 20 2 26
-10 26 -9 0 -16 -8 -16 -20 0 -11 -3 -20 -8 -20 -4 0 -8 36 -8 80 -1 62 2 80
12 80 9 0 14 -12 14 -35z m-6468 -20 c-4 -21 -10 -25 -38 -25 -35 0 -49 12
-40 35 3 10 19 15 44 15 36 0 39 -2 34 -25z m38 9 c0 -8 -4 -12 -10 -9 -5 3
-10 10 -10 16 0 5 5 9 10 9 6 0 10 -7 10 -16z m6387 -51 c-3 -10 -5 -2 -5 17
0 19 2 27 5 18 2 -10 2 -26 0 -35z m-3719 -140 c-15 -2 -42 -2 -60 0 -18 2 -6
4 27 4 33 0 48 -2 33 -4z m3812 3 c0 -2 -7 -9 -15 -16 -12 -10 -15 -10 -15 4
0 9 7 16 15 16 8 0 15 -2 15 -4z m160 -26 c0 -28 -2 -30 -40 -30 -22 0 -40 5
-40 11 0 6 14 9 33 7 27 -2 33 1 35 20 5 32 12 27 12 -8z m295 15 c273 -10
316 -15 313 -33 -4 -18 9 -18 -282 -1 -99 6 -191 15 -204 20 -26 10 -20 33 6
25 10 -3 85 -8 167 -11z m2141 -20 c4 -8 14 -15 24 -15 28 0 34 -19 14 -41
-22 -24 -36 -24 -59 1 -12 13 -15 27 -11 45 7 28 24 33 32 10z m192 -9 c11
-25 -1 -96 -16 -96 -15 0 -27 65 -18 93 12 33 20 34 34 3z m152 -31 c28 -33
33 -45 15 -45 -9 0 -13 4 -10 10 3 5 -6 12 -20 16 -18 4 -24 11 -21 21 3 8 7
24 7 36 1 21 2 21 6 2 3 -11 13 -29 23 -40z m-1595 17 c81 -6 90 -9 90 -27 0
-19 -5 -20 -121 -16 -67 2 -184 8 -260 15 -123 10 -139 13 -142 30 -4 18 2 19
169 11 96 -4 215 -10 264 -13z m2845 -17 c0 -8 -7 -15 -15 -15 -26 0 -18 20
13 29 1 1 2 -6 2 -14z m-585 -17 c6 -3 9 -35 7 -71 l-4 -65 -40 -4 c-22 -2
-41 -1 -43 3 -3 3 -26 3 -52 -1 -26 -4 -102 -8 -168 -10 -66 -1 -136 -3 -155
-4 l-35 -1 -3 73 c-3 63 -1 72 15 73 49 4 355 14 408 13 34 0 65 -3 70 -6z
m-1275 -33 c0 -19 -20 -29 -32 -17 -8 8 -7 16 2 26 14 17 30 12 30 -9z m590
-15 c0 -5 -2 -10 -4 -10 -3 0 -8 5 -11 10 -3 6 -1 10 4 10 6 0 11 -4 11 -10z
m-2290 -116 c96 -8 267 -18 379 -24 218 -9 347 -18 397 -26 24 -3 33 -11 36
-29 5 -23 2 -25 -31 -25 -20 0 -148 11 -286 25 -137 13 -326 29 -420 35 -93 5
-228 14 -300 20 -71 5 -133 10 -137 10 -5 0 -8 7 -8 15 0 20 129 20 370 -1z
m787 -228 c-1 -6 4 -10 11 -8 6 1 11 -4 10 -10 -2 -7 3 -12 10 -11 6 2 11 -3
10 -10 -2 -6 3 -11 10 -10 6 2 11 -3 10 -10 -2 -6 3 -11 10 -9 14 2 16 -4 4
-12 -5 -3 -30 16 -56 43 -27 28 -41 48 -32 48 8 0 14 -5 13 -11z"/>
<path d="M15296 8571 c-3 -5 1 -14 9 -21 8 -7 15 -9 15 -5 0 4 6 3 13 -3 7 -6
12 -25 11 -41 -2 -24 2 -29 17 -26 17 3 24 -9 20 -37 -1 -7 20 -5 35 4 6 4 9
-4 8 -22 -2 -23 2 -28 17 -25 17 3 24 -9 20 -37 -1 -7 20 -5 35 4 6 4 9 -4 8
-22 -2 -23 2 -28 17 -25 17 3 24 -9 20 -37 -1 -7 20 -5 35 4 6 4 9 -4 8 -22
-2 -23 2 -28 17 -25 17 3 24 -9 20 -37 -1 -7 20 -5 35 4 6 4 9 -4 8 -22 -2
-23 2 -28 17 -25 17 3 24 -9 20 -37 -1 -7 20 -5 35 4 6 4 9 -4 8 -22 -2 -23 2
-28 17 -25 17 3 24 -9 20 -37 -1 -7 20 -5 35 4 6 4 9 -4 8 -22 -2 -23 2 -28
17 -25 17 3 24 -9 20 -37 -1 -7 20 -5 35 4 6 4 9 -4 8 -22 -2 -23 2 -28 17
-25 17 3 24 -9 20 -37 -1 -7 20 -5 35 4 6 4 9 -4 8 -22 -2 -23 2 -28 17 -25
17 3 24 -9 20 -37 -1 -7 20 -5 35 4 6 4 9 -4 8 -22 -2 -23 2 -28 17 -25 17 3
24 -9 20 -37 -1 -7 20 -5 35 4 6 4 9 -4 8 -22 -2 -23 2 -28 17 -25 17 3 24 -9
20 -37 -1 -7 20 -5 35 4 6 4 9 -4 8 -22 -2 -23 2 -28 17 -25 17 3 24 -9 20
-37 -1 -7 20 -5 35 4 6 4 9 -4 8 -22 -2 -23 2 -28 17 -25 17 3 24 -9 20 -37
-1 -7 20 -5 35 4 6 4 9 -4 8 -22 -2 -23 2 -28 17 -25 17 3 24 -9 20 -37 -1 -7
20 -5 35 4 6 4 9 -4 8 -22 -2 -23 2 -28 17 -25 17 3 24 -9 20 -37 -1 -7 20 -5
35 4 6 4 9 -4 8 -22 -2 -23 2 -28 17 -25 17 3 24 -9 20 -37 -1 -7 20 -5 35 4
6 4 9 -4 8 -22 -2 -23 2 -28 17 -25 17 3 24 -9 20 -37 -1 -7 20 -5 35 4 6 4 9
-4 8 -22 -2 -23 2 -28 17 -25 17 3 24 -9 20 -37 -1 -7 20 -5 35 4 6 4 9 -4 8
-22 -2 -23 2 -28 17 -25 17 3 24 -9 20 -37 -1 -7 20 -5 35 4 6 4 9 -4 8 -22
-2 -23 2 -28 17 -25 17 3 24 -9 20 -37 -1 -7 20 -5 35 4 6 4 9 -4 8 -22 -2
-23 2 -28 17 -25 17 3 24 -9 20 -37 -1 -7 20 -5 35 4 6 4 9 -4 8 -22 -2 -23 2
-28 17 -25 17 3 24 -9 20 -37 -1 -7 20 -5 35 4 6 4 9 -4 8 -22 -2 -23 2 -28
17 -25 17 3 24 -9 20 -37 -1 -7 20 -5 35 4 6 4 9 -4 8 -22 -2 -23 2 -28 17
-25 17 3 24 -9 20 -37 -1 -7 20 -5 35 4 6 4 9 -4 8 -22 -2 -23 2 -28 17 -25
17 3 24 -9 20 -37 -1 -7 20 -5 35 4 6 4 9 -4 8 -22 -2 -23 2 -28 17 -25 17 3
24 -9 20 -37 -1 -7 20 -5 35 4 6 4 9 -4 8 -22 -2 -23 2 -28 17 -25 17 3 24 -9
20 -37 -1 -7 20 -5 35 4 6 4 9 -4 8 -22 -2 -23 2 -28 17 -25 17 3 24 -9 20
-37 -1 -7 20 -5 35 4 6 4 9 -4 8 -22 -2 -23 2 -28 17 -25 17 3 24 -9 20 -37
-1 -7 20 -5 35 4 6 4 9 -4 8 -22 -2 -23 2 -28 17 -25 17 3 24 -9 20 -37 -1 -7
20 -5 35 4 6 4 9 -4 8 -22 -2 -23 2 -28 17 -25 17 3 24 -9 20 -37 -1 -7 20 -5
35 4 6 4 9 -4 8 -22 -2 -23 2 -28 17 -25 17 3 24 -9 20 -37 -1 -7 20 -5 35 4
6 4 9 -4 8 -22 -2 -23 2 -28 17 -25 17 3 24 -9 20 -37 -1 -7 20 -5 35 4 6 4 9
-4 8 -22 -2 -23 2 -28 17 -25 17 3 24 -9 20 -37 -1 -7 20 -5 35 4 6 4 9 -4 8
-22 -2 -23 2 -28 17 -25 17 3 24 -9 20 -37 -1 -8 20 -5 35 5 14 8 37 -16 26
-28 -4 -5 -1 -5 7 0 9 5 -394 415 -1425 1446 -792 792 -1440 1439 -1441 1439
-1 0 -4 -4 -7 -9z m73 -64 c8 -10 7 -14 -2 -14 -8 0 -14 6 -14 14 0 7 1 13 2
13 2 0 8 -6 14 -13z m40 -40 c8 -10 7 -14 -2 -14 -8 0 -14 6 -14 14 0 7 1 13
2 13 2 0 8 -6 14 -13z m40 -40 c8 -10 7 -14 -2 -14 -8 0 -14 6 -14 14 0 7 1
13 2 13 2 0 8 -6 14 -13z m40 -40 c8 -10 7 -14 -2 -14 -8 0 -14 6 -14 14 0 7
1 13 2 13 2 0 8 -6 14 -13z m40 -40 c8 -10 7 -14 -2 -14 -8 0 -14 6 -14 14 0
7 1 13 2 13 2 0 8 -6 14 -13z m40 -40 c8 -10 7 -14 -2 -14 -8 0 -14 6 -14 14
0 7 1 13 2 13 2 0 8 -6 14 -13z m40 -40 c8 -10 7 -14 -2 -14 -8 0 -14 6 -14
14 0 7 1 13 2 13 2 0 8 -6 14 -13z m40 -40 c8 -10 7 -14 -2 -14 -8 0 -14 6
-14 14 0 7 1 13 2 13 2 0 8 -6 14 -13z m40 -40 c8 -10 7 -14 -2 -14 -8 0 -14
6 -14 14 0 7 1 13 2 13 2 0 8 -6 14 -13z m40 -40 c8 -10 7 -14 -2 -14 -8 0
-14 6 -14 14 0 7 1 13 2 13 2 0 8 -6 14 -13z m40 -40 c8 -10 7 -14 -2 -14 -8
0 -14 6 -14 14 0 7 1 13 2 13 2 0 8 -6 14 -13z m40 -40 c8 -10 7 -14 -2 -14
-8 0 -14 6 -14 14 0 7 1 13 2 13 2 0 8 -6 14 -13z m40 -40 c8 -10 7 -14 -2
-14 -8 0 -14 6 -14 14 0 7 1 13 2 13 2 0 8 -6 14 -13z m40 -40 c8 -10 7 -14
-2 -14 -8 0 -14 6 -14 14 0 7 1 13 2 13 2 0 8 -6 14 -13z m40 -40 c8 -10 7
-14 -2 -14 -8 0 -14 6 -14 14 0 7 1 13 2 13 2 0 8 -6 14 -13z m40 -40 c8 -10
7 -14 -2 -14 -8 0 -14 6 -14 14 0 7 1 13 2 13 2 0 8 -6 14 -13z m40 -40 c8
-10 7 -14 -2 -14 -8 0 -14 6 -14 14 0 7 1 13 2 13 2 0 8 -6 14 -13z m40 -40
c8 -10 7 -14 -2 -14 -8 0 -14 6 -14 14 0 7 1 13 2 13 2 0 8 -6 14 -13z m40
-40 c8 -10 7 -14 -2 -14 -8 0 -14 6 -14 14 0 7 1 13 2 13 2 0 8 -6 14 -13z
m40 -40 c8 -10 7 -14 -2 -14 -8 0 -14 6 -14 14 0 7 1 13 2 13 2 0 8 -6 14 -13z
m40 -40 c8 -10 7 -14 -2 -14 -8 0 -14 6 -14 14 0 7 1 13 2 13 2 0 8 -6 14 -13z
m40 -40 c8 -10 7 -14 -2 -14 -8 0 -14 6 -14 14 0 7 1 13 2 13 2 0 8 -6 14 -13z
m40 -40 c8 -10 7 -14 -2 -14 -8 0 -14 6 -14 14 0 7 1 13 2 13 2 0 8 -6 14 -13z
m40 -40 c8 -10 7 -14 -2 -14 -8 0 -14 6 -14 14 0 7 1 13 2 13 2 0 8 -6 14 -13z
m40 -40 c8 -10 7 -14 -2 -14 -8 0 -14 6 -14 14 0 7 1 13 2 13 2 0 8 -6 14 -13z
m40 -40 c8 -10 7 -14 -2 -14 -8 0 -14 6 -14 14 0 7 1 13 2 13 2 0 8 -6 14 -13z
m40 -40 c8 -10 7 -14 -2 -14 -8 0 -14 6 -14 14 0 7 1 13 2 13 2 0 8 -6 14 -13z
m40 -40 c8 -10 7 -14 -2 -14 -8 0 -14 6 -14 14 0 7 1 13 2 13 2 0 8 -6 14 -13z
m40 -40 c8 -10 7 -14 -2 -14 -8 0 -14 6 -14 14 0 7 1 13 2 13 2 0 8 -6 14 -13z
m40 -40 c8 -10 7 -14 -2 -14 -8 0 -14 6 -14 14 0 7 1 13 2 13 2 0 8 -6 14 -13z
m40 -40 c8 -10 7 -14 -2 -14 -8 0 -14 6 -14 14 0 7 1 13 2 13 2 0 8 -6 14 -13z
m40 -40 c8 -10 7 -14 -2 -14 -8 0 -14 6 -14 14 0 7 1 13 2 13 2 0 8 -6 14 -13z
m40 -40 c8 -10 7 -14 -2 -14 -8 0 -14 6 -14 14 0 7 1 13 2 13 2 0 8 -6 14 -13z
m40 -40 c8 -10 7 -14 -2 -14 -8 0 -14 6 -14 14 0 7 1 13 2 13 2 0 8 -6 14 -13z
m40 -40 c8 -10 7 -14 -2 -14 -8 0 -14 6 -14 14 0 7 1 13 2 13 2 0 8 -6 14 -13z
m40 -40 c8 -10 7 -14 -2 -14 -8 0 -14 6 -14 14 0 7 1 13 2 13 2 0 8 -6 14 -13z
m40 -40 c8 -10 7 -14 -2 -14 -8 0 -14 6 -14 14 0 7 1 13 2 13 2 0 8 -6 14 -13z
m40 -40 c8 -10 7 -14 -2 -14 -8 0 -14 6 -14 14 0 7 1 13 2 13 2 0 8 -6 14 -13z
m40 -40 c8 -10 7 -14 -2 -14 -8 0 -14 6 -14 14 0 7 1 13 2 13 2 0 8 -6 14 -13z
m40 -40 c8 -10 7 -14 -2 -14 -8 0 -14 6 -14 14 0 7 1 13 2 13 2 0 8 -6 14 -13z
m40 -40 c8 -10 7 -14 -2 -14 -8 0 -14 6 -14 14 0 7 1 13 2 13 2 0 8 -6 14 -13z
m40 -40 c8 -10 7 -14 -2 -14 -8 0 -14 6 -14 14 0 7 1 13 2 13 2 0 8 -6 14 -13z
m40 -40 c8 -10 7 -14 -2 -14 -8 0 -14 6 -14 14 0 7 1 13 2 13 2 0 8 -6 14 -13z
m40 -40 c8 -10 7 -14 -2 -14 -8 0 -14 6 -14 14 0 7 1 13 2 13 2 0 8 -6 14 -13z
m40 -40 c8 -10 7 -14 -2 -14 -8 0 -14 6 -14 14 0 7 1 13 2 13 2 0 8 -6 14 -13z
m40 -40 c8 -10 7 -14 -2 -14 -8 0 -14 6 -14 14 0 7 1 13 2 13 2 0 8 -6 14 -13z
m40 -40 c8 -10 7 -14 -2 -14 -8 0 -14 6 -14 14 0 7 1 13 2 13 2 0 8 -6 14 -13z
m40 -40 c8 -10 7 -14 -2 -14 -8 0 -14 6 -14 14 0 7 1 13 2 13 2 0 8 -6 14 -13z
m40 -40 c8 -10 7 -14 -2 -14 -8 0 -14 6 -14 14 0 7 1 13 2 13 2 0 8 -6 14 -13z
m40 -40 c8 -10 7 -14 -2 -14 -8 0 -14 6 -14 14 0 7 1 13 2 13 2 0 8 -6 14 -13z
m40 -40 c8 -10 7 -14 -2 -14 -8 0 -14 6 -14 14 0 7 1 13 2 13 2 0 8 -6 14 -13z
m40 -40 c8 -10 7 -14 -2 -14 -8 0 -14 6 -14 14 0 7 1 13 2 13 2 0 8 -6 14 -13z
m40 -40 c8 -10 7 -14 -2 -14 -8 0 -14 6 -14 14 0 7 1 13 2 13 2 0 8 -6 14 -13z
m40 -40 c8 -10 7 -14 -2 -14 -8 0 -14 6 -14 14 0 7 1 13 2 13 2 0 8 -6 14 -13z
m40 -40 c8 -10 7 -14 -2 -14 -8 0 -14 6 -14 14 0 7 1 13 2 13 2 0 8 -6 14 -13z
m40 -40 c8 -10 7 -14 -2 -14 -8 0 -14 6 -14 14 0 7 1 13 2 13 2 0 8 -6 14 -13z
m40 -40 c8 -10 7 -14 -2 -14 -8 0 -14 6 -14 14 0 7 1 13 2 13 2 0 8 -6 14 -13z
m40 -40 c8 -10 7 -14 -2 -14 -8 0 -14 6 -14 14 0 7 1 13 2 13 2 0 8 -6 14 -13z
m40 -40 c8 -10 7 -14 -2 -14 -8 0 -14 6 -14 14 0 7 1 13 2 13 2 0 8 -6 14 -13z
m40 -40 c8 -10 7 -14 -2 -14 -8 0 -14 6 -14 14 0 7 1 13 2 13 2 0 8 -6 14 -13z
m40 -40 c8 -10 7 -14 -2 -14 -8 0 -14 6 -14 14 0 7 1 13 2 13 2 0 8 -6 14 -13z
m40 -40 c8 -10 7 -14 -2 -14 -8 0 -14 6 -14 14 0 7 1 13 2 13 2 0 8 -6 14 -13z
m40 -40 c8 -10 7 -14 -2 -14 -8 0 -14 6 -14 14 0 7 1 13 2 13 2 0 8 -6 14 -13z
m40 -40 c8 -10 7 -14 -2 -14 -8 0 -14 6 -14 14 0 7 1 13 2 13 2 0 8 -6 14 -13z
m40 -40 c8 -10 7 -14 -2 -14 -8 0 -14 6 -14 14 0 7 1 13 2 13 2 0 8 -6 14 -13z
m40 -40 c8 -10 7 -14 -2 -14 -8 0 -14 6 -14 14 0 7 1 13 2 13 2 0 8 -6 14 -13z
m40 -40 c8 -10 7 -14 -2 -14 -8 0 -14 6 -14 14 0 7 1 13 2 13 2 0 8 -6 14 -13z
m40 -40 c8 -10 7 -14 -2 -14 -8 0 -14 6 -14 14 0 7 1 13 2 13 2 0 8 -6 14 -13z
m40 -40 c8 -10 7 -14 -2 -14 -8 0 -14 6 -14 14 0 7 1 13 2 13 2 0 8 -6 14 -13z
m40 -40 c8 -10 7 -14 -2 -14 -8 0 -14 6 -14 14 0 7 1 13 2 13 2 0 8 -6 14 -13z"/>
<path d="M15306 8468 c3 -5 10 -6 15 -3 13 9 11 12 -6 12 -8 0 -12 -4 -9 -9z"/>
<path d="M11138 3813 c-10 -3 -18 -13 -18 -23 0 -23 62 -120 75 -116 6 1 11
28 13 60 2 46 0 57 -12 54 -8 -2 -21 4 -28 13 -7 9 -21 14 -30 12z"/>
<path d="M9516 3761 c-4 -7 -5 -15 -2 -18 9 -9 19 4 14 18 -4 11 -6 11 -12 0z"/>
<path d="M11706 3771 c-9 -56 -7 -179 3 -186 5 -3 17 2 25 11 12 12 16 37 16
109 0 82 -2 93 -19 98 -15 4 -20 -2 -25 -32z"/>
<path d="M13332 2190 c0 -14 2 -19 5 -12 2 6 2 18 0 25 -3 6 -5 1 -5 -13z"/>
<path d="M13205 2060 c-3 -5 -1 -10 4 -10 6 0 11 5 11 10 0 6 -2 10 -4 10 -3
0 -8 -4 -11 -10z"/>
<path d="M13263 2049 c-25 -9 -30 -19 -10 -19 15 0 43 17 37 23 -3 3 -15 1
-27 -4z"/>
<path d="M13210 2020 c0 -5 5 -10 10 -10 6 0 10 5 10 10 0 6 -4 10 -10 10 -5
0 -10 -4 -10 -10z"/>
<path d="M12202 3720 c0 -14 2 -19 5 -12 2 6 2 18 0 25 -3 6 -5 1 -5 -13z"/>
<path d="M12202 3620 c0 -14 2 -19 5 -12 2 6 2 18 0 25 -3 6 -5 1 -5 -13z"/>
<path d="M12355 3773 c-14 -34 -18 -190 -6 -197 27 -17 41 15 41 93 0 107 -15
152 -35 104z"/>
<path d="M10496 2820 c3 -80 10 -119 19 -129 26 -27 29 -1 11 97 -28 152 -37
161 -30 32z"/>
<path d="M12612 2470 c0 -14 2 -19 5 -12 2 6 2 18 0 25 -3 6 -5 1 -5 -13z"/>
<path d="M11370 2109 c-19 -16 -45 -29 -57 -29 -13 0 -23 -6 -23 -13 0 -8 18
-13 54 -15 64 -3 103 21 92 55 -10 33 -29 33 -66 2z"/>
<path d="M1577 2089 c-3 -13 -1 -19 6 -16 15 5 22 37 9 37 -5 0 -12 -9 -15
-21z"/>
<path d="M7827 1704 c-4 -4 -7 -14 -7 -23 0 -13 2 -14 9 -2 5 8 16 11 26 7 11
-4 15 -2 13 6 -5 15 -31 22 -41 12z"/>
<path d="M7977 1703 c-4 -3 -7 -16 -6 -27 0 -12 3 -15 6 -8 2 6 13 12 24 12
23 0 25 15 3 24 -19 7 -19 7 -27 -1z"/>
<path d="M8047 1693 c-4 -3 -7 -16 -7 -27 1 -19 2 -19 11 -3 14 23 28 21 39
-5 8 -21 9 -20 9 10 1 27 -3 32 -22 32 -13 0 -27 -3 -30 -7z"/>
<path d="M8136 1691 c-7 -11 18 -33 27 -24 4 3 7 12 7 20 0 15 -26 18 -34 4z"/>
<path d="M8200 1681 c-12 -24 -13 -58 -1 -65 5 -4 7 3 4 14 -6 23 14 53 29 44
5 -4 7 -22 3 -41 -4 -24 -3 -33 4 -28 15 9 14 68 -1 83 -17 17 -26 15 -38 -7z"/>
<path d="M7822 1635 c4 -26 41 -27 47 0 3 16 1 17 -11 7 -11 -9 -17 -9 -27 1
-10 10 -12 8 -9 -8z"/>
<path d="M7904 1634 c3 -9 6 -18 6 -20 0 -3 5 -2 10 1 16 10 12 35 -6 35 -11
0 -14 -5 -10 -16z"/>
<path d="M7970 1624 c0 -8 11 -14 25 -14 14 0 25 4 25 9 0 5 -11 11 -25 13
-17 4 -25 1 -25 -8z"/>
<path d="M8130 1610 c0 -5 5 -10 10 -10 6 0 10 5 10 10 0 6 -4 10 -10 10 -5 0
-10 -4 -10 -10z"/>
<path d="M7293 1496 c20 -23 37 -26 37 -7 0 7 -43 31 -55 31 -2 0 6 -11 18
-24z"/>
<path d="M7105 1400 c-3 -5 -1 -10 4 -10 6 0 11 5 11 10 0 6 -2 10 -4 10 -3 0
-8 -4 -11 -10z"/>
<path d="M7260 1350 c0 -5 5 -10 11 -10 5 0 7 5 4 10 -3 6 -8 10 -11 10 -2 0
-4 -4 -4 -10z"/>
<path d="M7298 1353 c7 -3 16 -2 19 1 4 3 -2 6 -13 5 -11 0 -14 -3 -6 -6z"/>
<path d="M6870 1270 c0 -6 7 -10 15 -10 8 0 15 2 15 4 0 2 -7 6 -15 10 -8 3
-15 1 -15 -4z"/>
<path d="M6980 1269 c0 -5 5 -7 10 -4 6 3 10 8 10 11 0 2 -4 4 -10 4 -5 0 -10
-5 -10 -11z"/>
<path d="M11466 1178 c-3 -13 -1 -27 4 -32 7 -7 10 1 10 22 0 37 -5 41 -14 10z"/>
<path d="M11540 1150 c0 -5 5 -10 10 -10 6 0 10 5 10 10 0 6 -4 10 -10 10 -5
0 -10 -4 -10 -10z"/>
<path d="M6280 776 c0 -19 6 -24 37 -29 44 -8 53 -3 53 29 0 22 -4 24 -45 24
-41 0 -45 -2 -45 -24z"/>
<path d="M10675 1001 c-7 -12 31 -25 45 -16 5 3 10 10 10 16 0 12 -47 12 -55
0z"/>
<path d="M10798 988 c29 -14 28 -20 -9 -41 l-31 -17 23 -19 c25 -20 49 -18 49
6 0 10 6 12 20 8 15 -5 20 -2 20 14 0 11 3 22 8 25 11 6 63 -18 91 -43 14 -12
30 -20 37 -17 8 3 11 -14 12 -55 0 -32 3 -63 6 -68 8 -13 66 43 66 63 0 13 4
14 18 7 20 -11 95 -178 86 -193 -4 -6 -29 -7 -63 -4 -31 3 -92 8 -136 11 -197
12 -212 15 -259 51 -25 19 -49 34 -55 34 -5 0 -20 12 -33 28 -45 51 -126 113
-134 101 -4 -7 1 -16 12 -22 23 -13 97 -81 141 -128 46 -51 111 -76 213 -83
222 -14 268 -17 308 -21 28 -3 42 -1 42 7 0 27 -56 156 -89 207 -41 62 -95 94
-227 136 -84 26 -162 35 -116 13z"/>
<path d="M12031 961 c-75 -75 -72 -198 6 -244 43 -25 68 -15 103 40 49 77 48
146 -2 201 -27 28 -80 30 -107 3z m52 -66 c5 -60 4 -61 -29 -83 -50 -32 -60
-27 -25 13 22 25 31 46 31 70 0 31 9 70 15 63 1 -2 5 -30 8 -63z"/>
<path d="M12520 916 c0 -9 40 -13 46 -5 3 5 -6 9 -20 9 -14 0 -26 -2 -26 -4z"/>
<path d="M10720 882 c-18 -6 -11 -21 13 -24 31 -4 36 -52 8 -70 -35 -22 -24
-28 37 -22 69 8 78 14 86 59 4 19 11 35 16 35 6 0 10 6 10 13 0 10 -21 13 -80
12 -44 0 -84 -1 -90 -3z"/>
<path d="M13142 788 c-11 -27 -26 -36 -35 -20 -2 4 -2 2 -1 -5 5 -22 -21 -30
-126 -42 -129 -14 -150 -19 -150 -38 0 -11 10 -13 48 -8 130 18 218 37 239 50
28 19 46 51 40 73 -3 13 -7 11 -15 -10z"/>
<path d="M12228 526 c-12 -28 -28 -35 -28 -12 0 17 -32 16 -43 -1 -13 -20 3
-63 23 -63 10 0 20 6 22 12 3 9 9 8 22 -5 26 -25 36 -21 35 16 -1 24 -3 26 -6
9 -3 -13 -10 -21 -16 -19 -20 6 -19 35 2 56 11 11 16 23 11 26 -6 3 -15 -5
-22 -19z"/>
<path d="M11891 521 c-24 -44 -6 -110 22 -82 8 8 6 11 -6 11 -17 0 -22 11 -10
23 3 4 12 2 20 -4 9 -8 13 -8 13 -1 0 6 -9 17 -21 25 -19 14 -19 16 -4 25 11
6 14 12 7 16 -6 4 -16 -2 -21 -13z"/>
<path d="M11957 533 c-4 -3 -7 -28 -7 -55 0 -41 3 -49 17 -46 9 2 18 9 21 16
2 7 -2 10 -12 6 -11 -4 -16 -1 -16 11 0 11 5 15 15 11 21 -8 19 11 -2 24 -13
8 -14 13 -5 16 6 3 12 10 12 15 0 11 -14 12 -23 2z"/>
<path d="M12080 530 c0 -5 5 -10 10 -10 6 0 10 5 10 10 0 6 -4 10 -10 10 -5 0
-10 -4 -10 -10z"/>
<path d="M12284 526 c-4 -11 -1 -29 9 -44 26 -43 37 -38 36 15 -1 26 -3 40 -6
30 -5 -18 -5 -18 -18 0 -13 17 -14 17 -21 -1z"/>
<path d="M12076 496 c7 -19 38 -22 32 -3 -3 6 -12 13 -21 15 -12 2 -15 -1 -11
-12z"/>
<path d="M12010 461 c0 -11 39 -25 47 -18 3 3 2 10 -2 16 -8 13 -45 15 -45 2z"/>
<path d="M12095 450 c-15 -17 -16 -20 -3 -20 9 0 18 9 21 20 3 11 4 20 3 20
-2 0 -11 -9 -21 -20z"/>
<path d="M5916 3953 c-1 -1 -92 -5 -201 -8 -110 -3 -254 -11 -320 -16 -66 -5
-253 -14 -415 -19 -452 -16 -562 -30 -185 -24 368 5 753 20 920 33 66 6 212
11 325 11 236 1 255 16 27 22 -82 1 -150 2 -151 1z"/>
<path d="M6303 3933 c9 -2 25 -2 35 0 9 3 1 5 -18 5 -19 0 -27 -2 -17 -5z"/>
<path d="M4128 3873 c29 -2 74 -2 100 0 26 2 2 3 -53 3 -55 0 -76 -1 -47 -3z"/>
<path d="M2580 3799 c0 -5 5 -7 10 -4 6 3 10 8 10 11 0 2 -4 4 -10 4 -5 0 -10
-5 -10 -11z"/>
<path d="M1914 935 c-13 -32 2 -42 58 -38 71 6 78 9 78 33 0 18 -6 20 -65 20
-49 0 -67 -4 -71 -15z"/>
</g>
</svg>
